<svg class="rw-icon rw-icon--amex" width="48" height="48" viewBox="0 0 48 48"><radialGradient id="a" cx="1.401" cy="48.559" r=".933" gradientTransform="matrix(31 0 0 -30 -30 1471)" gradientUnits="userSpaceOnUse"><stop offset="0" stop-color="#9dd5f6"/><stop offset=".071" stop-color="#98d3f5"/><stop offset=".158" stop-color="#89cef3"/><stop offset=".252" stop-color="#70c6ef"/><stop offset=".351" stop-color="#4ebbea"/><stop offset=".455" stop-color="#23ade3"/><stop offset=".5" stop-color="#0da6e0"/><stop offset="1" stop-color="#2e77bc"/></radialGradient><path d="M38.817 9H8v30h30.817v-9.9c.123-.172.183-.392.183-.66 0-.308-.06-.498-.183-.658" fill="url(#a)"/><path d="M10.733 22.056l-.583-1.427-.58 1.427h1.163zm12.848-.568c-.117.071-.256.073-.422.073h-1.035v-.794h1.05c.148 0 .303.007.404.064.11.052.179.163.179.317 0 .156-.066.282-.176.34zm7.385.568l-.59-1.427-.587 1.427h1.177zM17.2 23.599h-.873l-.004-2.802-1.235 2.803h-.748l-1.24-2.805v2.804h-1.731l-.328-.798H9.266l-.33.798H8.01l1.526-3.577h1.266l1.45 3.387v-3.387h1.39l1.115 2.427 1.024-2.427h1.42l-.001 3.577zm3.482 0h-2.847v-3.577h2.847v.745h-1.995v.645h1.947v.733h-1.947v.714h1.995v.74zm4.013-2.614c0 .57-.38.865-.6.954.165.061.31.165.421.301.12.178.141.337.141.657v.702h-.86l-.002-.45c0-.216.02-.526-.135-.698-.124-.126-.314-.153-.62-.153h-.916V23.6h-.852v-3.577h1.96c.436 0 .757.011 1.032.171.27.16.431.393.431.791zM26.06 23.6h-.87v-3.577h.87V23.6zm10.087 0h-1.208l-1.615-2.685V23.6h-1.735l-.332-.798h-1.77l-.322.798h-.997c-.414 0-.938-.092-1.235-.395-.3-.304-.456-.716-.456-1.366 0-.53.093-1.016.46-1.399.275-.285.706-.417 1.294-.417h.825v.766h-.808c-.311 0-.487.047-.656.212-.145.151-.245.436-.245.81 0 .384.076.66.235.84.13.142.37.185.594.185h.382l1.201-2.813h1.277l1.443 3.384v-3.384h1.297l1.498 2.491v-2.491h.873V23.6zM8 24.302h1.456l.328-.795h.735l.328.795h2.863v-.608l.256.61h1.487l.256-.619v.617h7.119l-.004-1.304h.138c.097.003.125.012.125.172v1.132h3.682v-.304c.297.16.759.304 1.366.304h1.55l.331-.795h.735l.324.795h2.985v-.755l.452.755h2.392v-4.99h-2.367v.59l-.332-.59h-2.429v.59l-.304-.59h-3.281c-.55 0-1.032.077-1.422.292v-.291h-2.265v.29c-.248-.22-.586-.29-.962-.29h-8.271l-.555 1.287-.57-1.289H11.54v.59l-.286-.59H9.032L8 21.686v2.616zm30.033 3.188H36.48c-.155 0-.258.005-.344.064-.09.058-.125.144-.125.257a.268.268 0 00.186.267c.09.031.187.04.329.04l.462.013c.466.011.777.092.966.288.035.027.056.058.08.089l-.001-1.018zm0 2.358c-.207.304-.61.458-1.156.458h-1.645v-.767h1.638c.163 0 .277-.022.345-.089a.312.312 0 00.101-.233.295.295 0 00-.104-.237c-.062-.054-.152-.08-.3-.08-.8-.026-1.799.026-1.799-1.107 0-.519.329-1.065 1.223-1.065h1.697v-.712h-1.577c-.476 0-.821.114-1.066.292v-.292h-2.333c-.373 0-.81.093-1.018.292v-.292h-4.165v.292c-.331-.24-.89-.292-1.149-.292h-2.747v.292c-.263-.255-.846-.292-1.201-.292h-3.075l-.704.764-.659-.764h-4.593v4.993h4.507l.725-.776.683.776 2.778.002v-1.174h.273c.368.006.803-.01 1.187-.176v1.348h2.291v-1.301h.11c.142 0 .156.005.156.147v1.154h6.96c.442 0 .904-.114 1.16-.32v.32h2.208c.46 0 .908-.065 1.25-.23l-.001-.931zm-3.399-1.43c.166.173.255.39.255.76 0 .769-.479 1.128-1.338 1.128h-1.66v-.767h1.653c.162 0 .276-.022.348-.089a.32.32 0 00.1-.233.307.307 0 00-.103-.237c-.065-.054-.155-.08-.304-.08-.797-.026-1.794.026-1.794-1.107 0-.519.324-1.065 1.218-1.065h1.708v.762h-1.563c-.155 0-.256.005-.341.064-.094.058-.128.144-.128.258 0 .135.079.226.186.266.09.032.187.04.332.04l.458.013c.463.011.78.092.973.287zm-7.688-.22c-.114.068-.255.074-.421.074H25.49v-.804h1.049c.152 0 .303.003.407.065.11.058.176.168.176.321a.386.386 0 01-.176.344zm.514.445c.19.07.345.196.418.3.12.175.137.338.14.654v.71h-.855v-.449c0-.215.02-.534-.137-.7C26.9 29.03 26.71 29 26.4 29h-.91v1.307h-.856v-3.578H26.6c.431 0 .745.019 1.025.169.269.163.438.386.438.794 0 .571-.38.863-.604.952l.001-.001zm1.077-1.915h2.844v.74h-1.996v.65h1.947v.73h-1.947v.712l1.996.004v.742h-2.844v-3.578zm-5.75 1.651h-1.1v-.911h1.11c.308 0 .522.126.522.439 0 .31-.204.472-.532.472zm-1.95 1.602l-1.308-1.458 1.309-1.411-.001 2.869zm-3.378-.42h-2.095v-.713h1.87v-.73h-1.87v-.65H17.5l.932 1.043-.973 1.05zm6.774-1.654c0 .994-.739 1.199-1.483 1.199h-1.064v1.2H20.03l-1.049-1.184-1.09 1.184h-3.376v-3.578h3.427l1.049 1.173 1.084-1.173h2.722c.677 0 1.436.188 1.436 1.179z" fill="#fff"/></svg>