<svg aria-hidden="true" class="rw-icon rw-icon--app-store" width="119.7" height="40" viewBox="0 0 119.7 40"><path d="M110.1 0H7.5l-2 .2a7 7 0 00-1.9.6A6.1 6.1 0 002 2 6.1 6.1 0 00.8 3.6a7 7 0 00-.6 1.9 15 15 0 00-.2 2v25a13.6 13.6 0 00.2 2 7 7 0 00.6 1.9A6.1 6.1 0 002 38a6.1 6.1 0 001.6 1.2 7 7 0 001.9.6l2 .2h104.6l2-.2a6 6 0 001.9-.6 6.6 6.6 0 001.7-1.2 9.1 9.1 0 001.1-1.6 7.3 7.3 0 00.7-1.9c.1-.7.1-1.3.2-2v-25c-.1-.6-.1-1.3-.2-2a7.3 7.3 0 00-.7-1.9A5.9 5.9 0 00116 .8a6 6 0 00-1.9-.6l-2-.2h-2z" fill="#a6a6a6"/><path d="M8.4 39.1H5.7a4.9 4.9 0 01-1.7-.7 7.1 7.1 0 01-1.4-1 7.1 7.1 0 01-1-1.4 3.4 3.4 0 01-.5-1.7 11 11 0 01-.2-1.8v-25a11 11 0 01.2-1.8A3.4 3.4 0 011.6 4a7.1 7.1 0 011-1.4 7.1 7.1 0 011.4-1 3.4 3.4 0 011.7-.5A5.5 5.5 0 017.5.9h104.6a6.2 6.2 0 011.9.2 3.7 3.7 0 011.7.5 6.2 6.2 0 012.4 2.4 8.4 8.4 0 01.5 1.7 11.1 11.1 0 01.2 1.9v24.9a11 11 0 01-.2 1.8 8.4 8.4 0 01-.5 1.7 7.1 7.1 0 01-1 1.4l-1.4 1a5.8 5.8 0 01-1.7.6H8.4z"/><g data-name="Group"><g data-name="Group 2"><g data-name="Group 3" fill="#fff"><path data-name="Path" d="M24.8 20.3a5 5 0 012.3-4.2 4.9 4.9 0 00-4-2.1c-1.6-.2-3.3 1-4.1 1s-2.2-1-3.6-1a5.3 5.3 0 00-4.5 2.8c-1.9 3.3-.5 8.2 1.4 10.9s2 2.8 3.4 2.8 1.9-.9 3.6-.9 2.1.9 3.5.9 2.5-1.4 3.4-2.7a17.7 17.7 0 001.5-3.1 4.7 4.7 0 01-2.9-4.4z"/><path data-name="Path 2" d="M22 12.2a5.5 5.5 0 001.2-3.5 5.3 5.3 0 00-3.3 1.7 4.4 4.4 0 00-1.1 3.3 3.7 3.7 0 003.2-1.5z"/></g></g><g fill="#fff"><path d="M42.3 27.1h-4.7l-1.2 3.4h-2l4.5-12.4H41l4.5 12.4h-2.1zm-4.2-1.5h3.7L40 20.1h-.1zM55.2 26c0 2.8-1.5 4.6-3.8 4.6a3.2 3.2 0 01-2.9-1.6v4.5h-1.9V21.4h1.8v1.5h.1a3.3 3.3 0 012.8-1.6c2.3 0 3.9 1.9 3.9 4.7zm-2 0c0-1.9-.9-3.1-2.3-3.1s-2.4 1.3-2.4 3.1.9 3 2.4 3 2.3-1.2 2.3-3zM65.1 26c0 2.8-1.5 4.6-3.8 4.6a3.1 3.1 0 01-2.8-1.6v4.5h-1.9V21.4h1.8v1.5a3.4 3.4 0 012.9-1.6c2.3 0 3.8 1.9 3.8 4.7zm-1.9 0c0-1.9-.9-3.1-2.4-3.1s-2.4 1.3-2.4 3.1 1 3 2.4 3 2.4-1.2 2.4-3zM71.7 27c.1 1.3 1.3 2.1 3 2.1s2.7-.8 2.7-1.9-.7-1.6-2.3-2l-1.6-.4c-2.3-.5-3.4-1.6-3.4-3.3s1.9-3.6 4.6-3.6 4.4 1.4 4.4 3.6h-1.8a2.4 2.4 0 00-2.7-2c-1.5 0-2.5.8-2.5 1.9s.7 1.4 2.3 1.7l1.3.4c2.6.6 3.6 1.6 3.6 3.4s-1.8 3.8-4.8 3.8-4.6-1.4-4.7-3.7zM83.3 19.3v2.1h1.8v1.5h-1.8v5a1 1 0 001.1 1.1h.7v1.5a4.1 4.1 0 01-1.1 0c-1.8 0-2.5-.6-2.5-2.4v-5.2h-1.3v-1.5h1.3v-2.1zM86.1 26c0-2.9 1.6-4.7 4.3-4.7s4.3 1.8 4.3 4.7-1.7 4.6-4.3 4.6-4.3-1.8-4.3-4.6zm6.7 0c0-2-.9-3.1-2.4-3.1S88 24 88 26s.9 3.1 2.4 3.1 2.4-1.2 2.4-3.1zM96.2 21.4H98V23a2.3 2.3 0 012.2-1.7h.6v1.8l-.8-.1a2 2 0 00-2 1.8v5.7h-1.8zM109.4 27.8a3.7 3.7 0 01-3.9 2.8c-2.6 0-4.3-1.8-4.3-4.6s1.7-4.7 4.2-4.7 4.1 1.8 4.1 4.5v.6h-6.4a2.4 2.4 0 002.1 2.6h.3a2 2 0 002.1-1.3zm-6.3-2.7h4.5a2.1 2.1 0 00-2-2.3h-.2a2.3 2.3 0 00-2.3 2.3z"/></g></g><g data-name="Group 4"><g fill="#fff"><path d="M37.8 8.7a2.6 2.6 0 012.8 2.5.4.4 0 010 .5c0 1.9-1 3-2.8 3h-2.1v-6zm-1.2 5.2h1.1a2 2 0 002-1.8v-.4a1.9 1.9 0 00-1.6-2.1h-1.5zM41.7 12.4a2.1 2.1 0 014.2-.4v.4a2.2 2.2 0 01-1.9 2.4 2.1 2.1 0 01-2.3-1.9zm3.3 0c0-.9-.4-1.5-1.2-1.5s-1.2.6-1.2 1.5.4 1.6 1.2 1.6 1.2-.6 1.2-1.6zM51.6 14.7h-.9l-1-3.3-1 3.3h-.9l-1.2-4.5h.9l.8 3.4 1-3.4h.8l.9 3.4h.1l.8-3.4h.9zM53.9 10.2h.8v.7h.1a1.3 1.3 0 011.3-.8 1.5 1.5 0 011.6 1.4v3.2h-.9V12c0-.7-.3-1.1-1-1.1a1.1 1.1 0 00-1.1 1v2.8h-.8zM59.1 8.4h.9v6.3h-.9zM61.2 12.4a2.2 2.2 0 011.9-2.3 2.2 2.2 0 012.4 1.9v.4a2.2 2.2 0 01-2 2.4 2.2 2.2 0 01-2.3-1.9zm3.4 0a1.3 1.3 0 00-1.3-1.5c-.7 0-1.2.6-1.2 1.5s.5 1.6 1.2 1.6 1.3-.6 1.3-1.6zM66.4 13.4c0-.8.6-1.3 1.7-1.3h1.2v-.4c0-.5-.3-.7-.9-.7a1 1 0 00-1 .5h-.8a1.6 1.6 0 011.8-1.3c1.1 0 1.8.6 1.8 1.5v3.1h-.9v-.6a1.9 1.9 0 01-1.4.7 1.5 1.5 0 01-1.5-1.2zm2.9-.4v-.3h-1.1c-.6.1-.9.3-.9.7s.3.6.8.6a1 1 0 001.2-.9zM71.3 12.4c0-1.4.8-2.3 1.9-2.3a1.6 1.6 0 011.4.8h.1V8.4h.9v6.3h-.9V14h-.1a1.6 1.6 0 01-1.4.8c-1.1 0-1.9-.9-1.9-2.4zm1 0c0 1 .4 1.6 1.2 1.6s1.2-.6 1.2-1.6-.5-1.5-1.2-1.5-1.2.6-1.2 1.5zM79.2 12.4a2.2 2.2 0 014.3-.4v.4a2.2 2.2 0 11-4.3.5zm3.4 0c0-.9-.5-1.5-1.2-1.5a1.3 1.3 0 00-1.3 1.5c0 1 .5 1.6 1.3 1.6s1.2-.6 1.2-1.6zM84.7 10.2h.8v.7h.1a1.4 1.4 0 011.3-.8 1.5 1.5 0 011.6 1.4v3.2h-.9V12c0-.7-.3-1.1-1-1.1a1 1 0 00-1 1v2.8h-.9zM93.5 9.1v1.1h1v.8h-1v2.3c0 .5.2.7.7.7h.3v.8H94c-1 0-1.4-.3-1.4-1.2V11h-.7v-.8h.7V9.1zM95.7 8.4h.9v2.5h.1a1.3 1.3 0 011.3-.8 1.6 1.6 0 011.6 1.4v3.2h-.9V12c0-.7-.3-1.1-1-1.1a1 1 0 00-1.1 1v2.8h-.9zM104.8 13.5a2 2 0 01-2 1.3 2.1 2.1 0 01-2.1-2v-.3a2.2 2.2 0 011.8-2.4h.3c1.3 0 2 .9 2 2.3v.3h-3.2a1.2 1.2 0 001.1 1.3h.1a.9.9 0 001.1-.5zm-3.2-1.5h2.3a1 1 0 00-1-1.1h-.1a1.2 1.2 0 00-1.2 1.1z"/></g></g></svg>