<svg aria-hidden="true" class="rw-icon rw-icon--app-store" width="120" height="40" viewBox="0 0 120 40"><path d="M110.4 0H7.5l-2 .2a7 7 0 00-1.9.6A6.1 6.1 0 002 2 6.1 6.1 0 00.8 3.6a7 7 0 00-.6 1.9 15 15 0 00-.2 2v25a13.6 13.6 0 00.2 2 7 7 0 00.6 1.9A6.1 6.1 0 002 38a6.1 6.1 0 001.6 1.2 7 7 0 001.9.6l2 .2h105l2-.2a7 7 0 001.9-.6 7.1 7.1 0 002.8-2.8 7 7 0 00.6-1.9 13.6 13.6 0 00.2-2v-25a15 15 0 00-.2-2 7 7 0 00-.6-1.9 6.3 6.3 0 00-2.8-2.8 7 7 0 00-1.9-.6l-2-.2h-2.1z" fill="#a6a6a6"/><path d="M8.5 39.1H5.7a4.9 4.9 0 01-1.7-.7 7.1 7.1 0 01-1.4-1 7.1 7.1 0 01-1-1.4 4.8 4.8 0 01-.5-1.7 11 11 0 01-.2-1.8v-25a11 11 0 01.2-1.8A4.8 4.8 0 011.6 4a7.1 7.1 0 011-1.4 7.1 7.1 0 011.4-1 3.4 3.4 0 011.7-.5A5.8 5.8 0 017.6.9h104.8a5.8 5.8 0 011.9.2 3.4 3.4 0 011.7.5 5.6 5.6 0 012.4 2.4 4.8 4.8 0 01.5 1.7 11.1 11.1 0 01.2 1.9v24.9a11 11 0 01-.2 1.8 4.8 4.8 0 01-.5 1.7 7.1 7.1 0 01-1 1.4 7.1 7.1 0 01-1.4 1 4.9 4.9 0 01-1.7.6H8.5z"/><g data-name="Group"><g data-name="Group 2"><g data-name="Group 3" fill="#fff"><path data-name="Path" d="M24.8 20.3a5.4 5.4 0 012.4-4.2 4.9 4.9 0 00-4-2.1c-1.7-.2-3.3 1-4.2 1s-2.2-1-3.6-1a5.3 5.3 0 00-4.5 2.8c-1.9 3.3-.5 8.2 1.4 10.9s2 2.8 3.4 2.8 1.9-.9 3.6-.9 2.2.9 3.6.9 2.4-1.4 3.3-2.7a13 13 0 001.6-3.1 4.8 4.8 0 01-3-4.4z"/><path data-name="Path 2" d="M22.1 12.2a4.9 4.9 0 001.1-3.5 5.1 5.1 0 00-3.2 1.7 4.4 4.4 0 00-1.1 3.3 3.8 3.8 0 003.2-1.5z"/></g></g><g fill="#fff"><path d="M42.4 27.1h-4.7l-1.2 3.4h-2L39 18.1h2.1l4.5 12.4h-2zm-4.2-1.5h3.7l-1.8-5.5H40zM55.3 26c0 2.8-1.5 4.6-3.8 4.6a2.9 2.9 0 01-2.8-1.6h-.1v4.5h-1.8V21.4h1.8v1.5a3.4 3.4 0 012.9-1.6c2.3 0 3.8 1.9 3.8 4.7zm-1.9 0c0-1.9-1-3.1-2.4-3.1s-2.4 1.3-2.4 3.1 1 3 2.4 3 2.4-1.2 2.4-3zM65.3 26c0 2.8-1.5 4.6-3.8 4.6a2.9 2.9 0 01-2.8-1.6h-.1v4.5h-1.8V21.4h1.8v1.5a3.4 3.4 0 012.9-1.6c2.3 0 3.8 1.9 3.8 4.7zm-1.9 0c0-1.9-1-3.1-2.4-3.1s-2.4 1.3-2.4 3.1 1 3 2.4 3 2.4-1.2 2.4-3zM71.9 27c.1 1.3 1.3 2.1 3 2.1s2.7-.8 2.7-1.9-.7-1.6-2.3-2l-1.6-.4c-2.3-.5-3.4-1.6-3.4-3.3s1.9-3.6 4.6-3.6 4.4 1.4 4.5 3.6h-1.9c-.1-1.3-1.2-2-2.7-2s-2.5.8-2.5 1.9.7 1.4 2.3 1.7l1.3.4c2.6.6 3.7 1.6 3.7 3.4s-1.9 3.8-4.8 3.8-4.7-1.4-4.8-3.7zM83.6 19.3v2.1h1.7v1.5h-1.7v5c0 .8.3 1.1 1.1 1.1h.6v1.5a3.4 3.4 0 01-1 0c-1.9 0-2.6-.6-2.6-2.4v-5.2h-1.3v-1.5h1.3v-2.1zM86.3 26c0-2.9 1.7-4.7 4.3-4.7s4.3 1.8 4.3 4.7-1.6 4.6-4.3 4.6-4.3-1.8-4.3-4.6zm6.7 0c0-2-.9-3.1-2.4-3.1S88.2 24 88.2 26s.9 3.1 2.4 3.1S93 27.9 93 26zM96.5 21.4h1.7V23h.1a2.2 2.2 0 012.2-1.7h.6v1.8l-.8-.2a2 2 0 00-2 1.8v5.7h-1.8zM109.7 27.8a3.7 3.7 0 01-3.9 2.8c-2.7 0-4.3-1.8-4.3-4.6s1.6-4.7 4.2-4.7 4.1 1.8 4.1 4.5v.6h-6.4a2.4 2.4 0 002.1 2.6h.3a2 2 0 002.1-1.3zm-6.3-2.7h4.5a2.1 2.1 0 00-2-2.3h-.2a2.3 2.3 0 00-2.3 2.3z"/></g></g><g data-name="Group 4"><g fill="#fff"><path d="M37.9 8.7a2.7 2.7 0 012.9 2.5 1.1 1.1 0 01-.1.5c0 1.9-1 3-2.8 3h-2.1v-6zm-1.2 5.2h1.1a1.9 1.9 0 002-1.8v-.4a1.9 1.9 0 00-1.6-2.1h-1.5zM41.8 12.4a2.1 2.1 0 011.9-2.3 2.3 2.3 0 012.4 1.9v.4a2.2 2.2 0 01-2 2.4 2.2 2.2 0 01-2.3-1.9zm3.3 0c0-.9-.4-1.5-1.2-1.5s-1.2.6-1.2 1.5.5 1.6 1.2 1.6 1.2-.6 1.2-1.6zM51.7 14.7h-.9l-.9-3.3h-.1l-.9 3.3h-1l-1.2-4.5h.9l.8 3.4h.1l.9-3.4h.9l.9 3.4h.1l.8-3.4h.9zM54 10.2h.9v.7a1.6 1.6 0 011.4-.8 1.5 1.5 0 011.6 1.4.4.4 0 01-.1.3v2.9h-.9V12c0-.7-.3-1.1-.9-1.1a1 1 0 00-1.1 1v2.8H54zM59.3 8.4h.9v6.3h-.9zM61.4 12.4a2.1 2.1 0 014.2-.4c.1.2.1.3 0 .4a2.1 2.1 0 01-1.9 2.4 2.2 2.2 0 01-2.3-1.9zm3.3 0c0-.9-.4-1.5-1.2-1.5s-1.2.6-1.2 1.5.4 1.6 1.2 1.6 1.2-.6 1.2-1.6zM66.6 13.4c0-.8.6-1.3 1.7-1.3h1.2v-.4c0-.5-.3-.7-.9-.7a1 1 0 00-1 .5h-.8a1.6 1.6 0 011.8-1.3c1.1 0 1.8.6 1.8 1.5v3.1h-.9v-.6h-.1a1.6 1.6 0 01-1.3.7 1.4 1.4 0 01-1.5-1.2zm2.9-.4v-.3h-1.1c-.6.1-.9.3-.9.7s.3.6.8.6a1 1 0 001.2-.9zM71.5 12.4c0-1.4.8-2.3 1.9-2.3a1.6 1.6 0 011.4.8h.1V8.4h.9v6.3h-.9V14h-.1a1.5 1.5 0 01-1.4.8c-1.1 0-1.9-.9-1.9-2.4zm1 0c0 1 .4 1.6 1.2 1.6s1.2-.6 1.2-1.6-.5-1.5-1.2-1.5-1.2.6-1.2 1.5zM79.6 8.9a.5.5 0 01.5-.6.5.5 0 01.6.5.6.6 0 01-.5.6h-.1a.5.5 0 01-.5-.5zm.1 1.3h.9v4.5h-.9zM82 10.2h.9v.7a1.6 1.6 0 011.4-.8 1.5 1.5 0 011.6 1.4v3.2H85V12a1 1 0 00-1-1.1 1 1 0 00-1.1 1v2.8H82zM89.5 12.4c0-1.4.7-2.3 1.8-2.3a1.6 1.6 0 011.4.8h.1V8.4h.9v6.3h-.9V14a1.8 1.8 0 01-1.5.8c-1.1 0-1.8-.9-1.8-2.4zm.9 0c0 1 .4 1.6 1.2 1.6s1.2-.6 1.2-1.6-.5-1.5-1.2-1.5-1.2.6-1.2 1.5zM99 13.5a2 2 0 01-2 1.3 2.1 2.1 0 01-2.1-2v-.3a2.2 2.2 0 011.8-2.4h.3c1.3 0 2 .9 2 2.3v.3h-3.2a1.2 1.2 0 001.1 1.3h.1a.9.9 0 001.1-.5zM95.8 12h2.3a1 1 0 00-1-1.1H97a1.2 1.2 0 00-1.2 1.1z"/></g></g></svg>