<svg aria-hidden="true" class="rw-icon rw-icon--carry-on" width="48" height="48" viewBox="0 0 48 48"><g fill="currentcolor"><path d="M5 40.2v2.1a.7.7 0 00.7.7h.6a.7.7 0 00.7-.7v-.8h11.5v.8a.7.7 0 00.7.7h.6a.7.7 0 00.7-.7v-3.5H5zM19 21.5h-3.2V15H17v-1.5a1.1 1.1 0 00-1-1H9.5a1.1 1.1 0 00-1 1V15h1.3v6.5H6.5A1.5 1.5 0 005 23v1.8h15.5V23a1.5 1.5 0 00-1.5-1.5zm-4.2 0h-4V15h4zM5 26.3h15.5v11H5zM37 30.5v-3.3a1.5 1.5 0 00-1.5-1.5h-5a1.5 1.5 0 00-1.5 1.5v3.3h-6v1.9l10 4.3 10-4.3v-1.9zm-1 0h-6v-3.3a.5.5 0 01.5-.5h5a.5.5 0 01.5.5z"/><path d="M23 34v7.3a1.8 1.8 0 001.7 1.7h16.6a1.8 1.8 0 001.7-1.7V34l-10 4.3z"/></g></svg>