<svg aria-hidden="true" class="rw-icon rw-icon--calendar" width="48" height="48" viewBox="0 0 48 48"><g fill="currentcolor"><path d="M38.6 8H34V6a.9.9 0 00-.8-1H32a1.1 1.1 0 00-1 1v2H17V6a1.1 1.1 0 00-1-1h-1a.9.9 0 00-1 .8V8H9.4A2.4 2.4 0 007 10.4v30.2A2.4 2.4 0 009.4 43h29.2a2.4 2.4 0 002.4-2.4V10.4A2.4 2.4 0 0038.6 8zm.4 32.6a.4.4 0 01-.4.4H9.4a.4.4 0 01-.4-.4V17h30z"/><path d="M13 21h4v4h-4zM25 21h4v4h-4zM19 21h4v4h-4zM31 21h4v4h-4zM13 27h4v4h-4zM25 27h4v4h-4zM19 27h4v4h-4zM31 27h4v4h-4zM13 33h4v4h-4zM25 33h4v4h-4zM19 33h4v4h-4zM31 33h4v4h-4z"/></g></svg>