<svg aria-hidden="true" class="rw-icon rw-icon--car-rental" width="48" height="48" viewBox="0 0 48 48"><g fill="currentcolor"><path d="M37.8 29.6l-3.2-8.9a2.6 2.6 0 00-2.4-1.7H15.8a2.6 2.6 0 00-2.4 1.7l-3.2 8.9a2.9 2.9 0 00-.2.9V42a.9.9 0 00.8 1H14a.9.9 0 001-.8V39h18v3a.9.9 0 00.8 1H37a.9.9 0 001-.8V30.5a2.9 2.9 0 00-.2-.9zm-22.5-8.3a.5.5 0 01.5-.3h16.4a.5.5 0 01.5.3l2.4 6.7H12.9zM19 36h-5.5a1.5 1.5 0 01-1.5-1.5V32h5.5a1.5 1.5 0 011.5 1.5zm17-1.5a1.5 1.5 0 01-1.5 1.5H29v-2.5a1.5 1.5 0 011.5-1.5H36zM17.5 16a5.5 5.5 0 004.9-3h2.2l2.1-2.1 1.4 1.4 1.5-1.4 1.4 1.4 1.4-1.4 1.5 1.4 2.1-2.2L33.9 8H22.4a5.5 5.5 0 10-4.9 8zm-2-7a1.5 1.5 0 11-1.5 1.5A1.5 1.5 0 0115.5 9z"/></g></svg>