<svg aria-hidden="true" class="rw-icon rw-icon--car-with-heart" width="48" height="48" viewBox="0 0 48 48"><g fill="currentcolor"><path d="M30.8 8.6a3.9 3.9 0 00-.2-1.5 3 3 0 00-1.2-1.7 3.9 3.9 0 00-3.9.3 2.8 2.8 0 00-1 .9l-.5.7-.5-.7a2.8 2.8 0 00-1-.9 3.9 3.9 0 00-3.9-.3 2.6 2.6 0 00-1.2 1.7 3.9 3.9 0 00-.2 1.5c.2 1.8 1.4 3.7 3.6 5.8l3.1 2.6 2.2-1.9c3-2.6 4.5-4.7 4.7-6.5zM37.8 29.6l-3.2-8.9a2.6 2.6 0 00-2.4-1.7H15.8a2.6 2.6 0 00-2.4 1.7l-3.2 8.9a2.9 2.9 0 00-.2.9V42a.9.9 0 00.8 1H14a.9.9 0 001-.8V39h18v3a.9.9 0 00.8 1H37a.9.9 0 001-.8V30.5a2.9 2.9 0 00-.2-.9zm-22.5-8.3a.5.5 0 01.5-.3h16.4a.5.5 0 01.5.3l2.4 6.7H12.9zM19 36h-5.5a1.5 1.5 0 01-1.5-1.5V32h5.5a1.5 1.5 0 011.5 1.5zm17-1.5a1.5 1.5 0 01-1.5 1.5H29v-2.5a1.5 1.5 0 011.5-1.5H36z"/></g></svg>