<svg aria-hidden="true" class="rw-icon rw-icon--checkin" width="48" height="48" viewBox="0 0 48 48"><g fill="currentcolor"><path d="M41.5 29.5H40v-4a1.5 1.5 0 00-1.5-1.5H36a1.5 1.5 0 00-1.5 1.5v4H33a1.5 1.5 0 00-1.5 1.5v10.5A1.5 1.5 0 0033 43h8.5a1.5 1.5 0 001.5-1.5V31a1.5 1.5 0 00-1.5-1.5zm-2.5 0h-3.5v-4a.5.5 0 01.5-.5h2.5a.5.5 0 01.5.5zM5 24h13v2H5zM19.3 29.5h1.5a.9.9 0 011 1V36a.9.9 0 01-1 1h-1.5a.9.9 0 01-1-1v-5.5a.9.9 0 011-1z"/><circle cx="26.3" cy="12.5" r="2.5"/><path d="M32.8 27.8a1 1 0 00.5-1.3l-3-9.1a1.7 1.7 0 00-1.4-.9h-5.1a1.7 1.7 0 00-1.4.9l-3.1 9.1a1.1 1.1 0 00.6 1.3 1 1 0 001.3-.5.1.1 0 01.1-.1l1.7-4.8c0-.2.3-.1.3.1v19.2a1.4 1.4 0 001.1 1.3 1.2 1.2 0 001.4-1V30a.5.5 0 01.5-.5h.1a.5.5 0 01.5.5v11.7A1.2 1.2 0 0028 43h.2a1.3 1.3 0 001.2-1.3V22.5c0-.2.2-.3.3-.1l1.6 4.8a1.1 1.1 0 001.5.6zM14 17.5a1.1 1.1 0 00-1-1H6a1.1 1.1 0 00-1 1V23h9zM9.3 15a2.5 2.5 0 002.5-2.5V12l1.2-.8a.5.5 0 00.3-.5.7.7 0 00-.6-.7H6.8v2.5A2.5 2.5 0 009.3 15z"/></g></svg>