<svg aria-hidden="true" class="rw-icon rw-icon--changing-area" width="48" height="48" viewBox="0 0 48 48"><g fill="currentcolor"><path d="M21.6 39h19.5v1.5H21.6z"/><circle cx="37.7" cy="33.6" r="3.4"/><path d="M22.6 33a2.5 2.5 0 00.5 3.5 2.6 2.6 0 001.7.5H31c1.4 0 2.1-.6 2.1-1.4v-7.4a1.2 1.2 0 00-1.2-1.2h-.2a1.4 1.4 0 00-1.1 1.3V32h-3.7a.5.5 0 01-.5-.5v-.2l1.1-2.5a1.4 1.4 0 00-.5-1.6l-3.5-2a1.2 1.2 0 00-1.7.3c0 .1-.1.1-.1.2a1.4 1.4 0 00.6 1.7l2.4 1.4z"/><path d="M9.1 43H12s.7-17.4.8-19.5a2.5 2.5 0 011.1-2 45.2 45.2 0 016.8-4.8c.2-.1.5 0 .5.2l.3 4.3a1.1 1.1 0 00.6 1.1l6.5 4 .6.2a1.5 1.5 0 001.2-.7 1.5 1.5 0 00-.6-1.7L24 20.6v-7.9a3.4 3.4 0 00-.5-1.7 3.4 3.4 0 00-4.6-.9l-8.8 6a4.6 4.6 0 00-2.6 4.3"/><circle cx="28.9" cy="9" r="4"/></g></svg>