<svg aria-hidden="true" class="rw-icon rw-icon--drinks" width="48" height="48" viewBox="0 0 48 48"><g fill="currentcolor"><path d="M35.9 24.1H10.6V30a11 11 0 0021.5 3.2h3.8a4.5 4.5 0 004.5-4.5 4.6 4.6 0 00-4.5-4.6zm0 7.1h-3.3v-5.1h3.3a2.6 2.6 0 012.5 2.6 2.5 2.5 0 01-2.5 2.5zM15 20h2a2.1 2.1 0 01.7-1.5 3.7 3.7 0 001.3-2.8 3.9 3.9 0 00-1.3-2.9 2.1 2.1 0 01-.7-1.5 2.1 2.1 0 01.7-1.5A3.4 3.4 0 0019 7h-2a2.1 2.1 0 01-.7 1.5 3.7 3.7 0 00-1.3 2.8 3.9 3.9 0 001.3 2.9 2 2 0 01.2 2.8l-.2.2A3.4 3.4 0 0015 20zM20 20h2a2.1 2.1 0 01.7-1.5 3.7 3.7 0 001.3-2.8 3.9 3.9 0 00-1.3-2.9 2.1 2.1 0 01-.7-1.5 2.1 2.1 0 01.7-1.5A3.4 3.4 0 0024 7h-2a2.1 2.1 0 01-.7 1.5 3.7 3.7 0 00-1.3 2.8 3.9 3.9 0 001.3 2.9 2 2 0 01.2 2.8l-.2.2A3.4 3.4 0 0020 20zM25 20h2a2.1 2.1 0 01.7-1.5 3.7 3.7 0 001.3-2.8 3.9 3.9 0 00-1.3-2.9 2.1 2.1 0 01-.7-1.5 2.1 2.1 0 01.7-1.5A3.4 3.4 0 0029 7h-2a2.1 2.1 0 01-.7 1.5 3.7 3.7 0 00-1.3 2.8 3.9 3.9 0 001.3 2.9 2 2 0 01.2 2.8l-.2.2A3.4 3.4 0 0025 20z"/></g></svg>