<svg aria-hidden="true" class="rw-icon rw-icon--discount" width="48" height="48" viewBox="0 0 48 48"><g fill="currentcolor"><circle cx="18.5" cy="23.6" r="1.8"/><path d="M36.9 14.1h-6.7V7.2a2.2 2.2 0 00-2.1-2.3H20a2.2 2.2 0 00-2.2 2.2V14h-6.7L9.9 40.2a2.7 2.7 0 002.5 2.9h23a2.7 2.7 0 002.7-2.7v-.2zM19.2 7.2a.9.9 0 01.8-.8h8a.9.9 0 01.8.8v6.9h-9.6zm-4 16.4a3.3 3.3 0 113.3 3.3 3.3 3.3 0 01-3.3-3.3zm1.7 12.6l13-16 1.2.9-13 16zm12.6.7a3.3 3.3 0 113.3-3.3 3.3 3.3 0 01-3.3 3.3z"/><circle cx="29.5" cy="33.6" r="1.8"/></g></svg>