<svg xmlns="http://www.w3.org/2000/svg" width="24" height="24" viewBox="0 0 24 24"><path fill="#141251" d="M12.1 15.251a2.773 2.773 0 100-5.546 2.773 2.773 0 000 5.546z"/><path fill="#141251" fill-rule="evenodd" clip-rule="evenodd" d="M5.573 8.113C7.4 7.016 9.675 6.1 12.099 6.1c2.969 0 5.586 1.315 7.443 2.6 1.802 1.247 2.965 2.519 3.145 2.722.578.613.496 1.502.084 2.078l-.026.036-.029.033c-.797.896-2.253 2.204-4.088 3.293-1.833 1.087-4.11 1.994-6.53 1.994-2.968 0-5.586-1.315-7.442-2.6-1.84-1.273-3.015-2.572-3.155-2.733a1.561 1.561 0 010-2.09c.794-.905 2.243-2.223 4.072-3.32zm-2.775 4.365a17.316 17.316 0 003.805 3.05 6.257 6.257 0 01-.789-3.05c0-1.101.284-2.137.781-3.037a15.92 15.92 0 00-.166.099c-1.64.983-2.935 2.157-3.63 2.938zM17.78 15.43a8.523 8.523 0 01-.189.11c.507-.906.796-1.95.796-3.063a6.256 6.256 0 00-.787-3.048c.349.206.682.42.996.638 1.634 1.13 2.69 2.282 2.834 2.444-.698.774-2.002 1.941-3.65 2.919zM12.1 17.1a4.622 4.622 0 100-9.245 4.622 4.622 0 000 9.244z"/></svg>