<svg xmlns="http://www.w3.org/2000/svg" width="24" height="24" viewBox="0 0 24 24"><path fill="#141251" fill-rule="evenodd" clip-rule="evenodd" d="M5.203 5.32a.693.693 0 00-.891 1.062l1.684 1.414c-.143.08-.285.163-.423.246-1.83 1.097-3.278 2.415-4.071 3.319a1.56 1.56 0 00-.001 2.09c.14.162 1.314 1.461 3.155 2.734 1.856 1.285 4.474 2.6 7.443 2.6 1.932 0 3.772-.578 5.368-1.364l2.374 1.992a.693.693 0 00.891-1.063l-1.96-1.645c1.767-1.071 3.168-2.334 3.944-3.207l.03-.033.025-.036c.412-.577.494-1.465-.084-2.078-.18-.204-1.343-1.476-3.145-2.723-1.857-1.284-4.475-2.6-7.443-2.6-1.691 0-3.31.447-4.754 1.089L5.203 5.32zm3.118 4.426a4.622 4.622 0 007.056 5.92l-1.425-1.195a2.773 2.773 0 01-4.207-3.53L8.321 9.746zm2.436.234L9.283 8.743a4.622 4.622 0 016.916 5.803l-1.476-1.238a2.773 2.773 0 00-3.966-3.328zm-5.155 4.837a17.31 17.31 0 01-2.804-2.41c.696-.78 1.992-1.955 3.63-2.938l.167-.1a6.257 6.257 0 00-.78 3.038c0 1.107.285 2.147.788 3.05a16.26 16.26 0 01-1-.64zm11.988.653l.19-.11c1.647-.978 2.95-2.146 3.65-2.92a17.23 17.23 0 00-2.835-2.443 16.29 16.29 0 00-.996-.638c.501.903.787 1.942.787 3.048a6.257 6.257 0 01-.796 3.063z"/></svg>