<svg aria-hidden="true" class="rw-icon rw-icon--family" width="48" height="48" viewBox="0 0 48 48"><g fill="currentcolor"><path d="M32 28l1-11v25h3V29h1v13h3V17l1 11h2l-1-11.4c0-3.1-1.2-4.6-3-4.6h-5c-1.8 0-3 1.5-3 4.6L30 28zM33.4 8a3 3 0 003 3 2.9 2.9 0 003-3 2.9 2.9 0 00-3-3 3 3 0 00-3 3zM15 32h3l-4-15.4 5 9.4h2l-5-10.4c-1-2.1-1.2-2.6-3-2.6h-3c-1.8 0-2 .5-3 2.6L2 26h2l5-9.4L5 32h3v10h3V32h1v10h3zM8.4 9a3 3 0 003 3 2.9 2.9 0 003-3 2.9 2.9 0 00-3-3 3 3 0 00-3 3zM23 20.9a2 2 0 104 0 2 2 0 10-4 0zM23 30.4v-2.1L21 33h-2l4-9h4l4 9h-2l-2-4.7v2l2 6.4h-2V42h-4v-5.3h-2zM23 24h4"/></g></svg>