<svg xmlns="http://www.w3.org/2000/svg" width="24" height="24" viewBox="0 0 24 24"><path class="rw-icon__floor-0" d="M11.314 11.9l-7.539 4.244c-.143.08-.143.02-.004.097l7.545 4.135a1.618 1.618 0 001.29.013l8.027-4.172c.132-.069.132.024-.005-.05l-8.033-4.28a1.55 1.55 0 00-1.28.013z" fill="#fff" stroke="#141251"/><path class="rw-icon__floor-1" d="M11.314 8.9l-7.539 4.244c-.143.08-.143.02-.004.097l7.545 4.135a1.618 1.618 0 001.29.013l8.027-4.172c.132-.069.132.023-.005-.05l-8.033-4.28a1.55 1.55 0 00-1.28.013z" fill="#fff" stroke="#141251"/><path class="rw-icon__floor-2" d="M11.314 5.9l-7.539 4.244c-.143.08-.143.02-.004.097l7.545 4.135a1.618 1.618 0 001.29.013l8.027-4.172c.132-.069.132.024-.005-.05l-8.033-4.28a1.55 1.55 0 00-1.28.013z" fill="#fff" stroke="#141251"/><path class="rw-icon__floor-3" d="M11.314 2.9L3.776 7.144c-.144.08-.144.02-.005.097l7.545 4.135a1.618 1.618 0 001.29.013l8.027-4.173c.132-.068.132.024-.005-.049l-8.033-4.28a1.55 1.55 0 00-1.28.013z" fill="#fff" stroke="#141251"/></svg>