<svg aria-hidden="true" class="rw-icon rw-icon--fork-and-knife" width="48" height="48" viewBox="0 0 48 48"><path fill="currentcolor" d="M31.9 5a1.6 1.6 0 00-1.6 1.4l-2.7 18.4v.4a2.8 2.8 0 002.7 2.8h.7v13.8a1.2 1.2 0 001.2 1.2h.1a1.2 1.2 0 001.2-1.2V6.6A1.6 1.6 0 0031.9 5zM22.5 13.8a1.2 1.2 0 01-1.2 1.2 1.2 1.2 0 01-1.3-1.092V5h-1.5v8.8a1.2 1.2 0 01-1.2 1.2 1.2 1.2 0 01-1.3-1.092V5h-1.5v10.5a4.8 4.8 0 003.5 4.4v21.8a1.2 1.2 0 001.092 1.3h.008a1.4 1.4 0 001.4-1.2V19.9a4.7 4.7 0 003.5-4.1V5h-1.5z"/></svg>