<svg aria-hidden="true" class="rw-icon rw-icon--globe" width="48" height="48" viewBox="0 0 48 48"><path fill="currentcolor" d="M24 5a19 19 0 1019 19A19 19 0 0024 5zm0 35c-1.9 0-4-3.1-5.1-8h10.2c-1.1 4.9-3.2 8-5.1 8zm-5.7-11a41.8 41.8 0 010-10h11.4a41.9 41.9 0 01.3 5 41.9 41.9 0 01-.3 5zM24 8c1.9 0 4 3.1 5.1 8H18.9c1.1-4.9 3.2-8 5.1-8zm8.7 11h6.5a16.9 16.9 0 01.8 5 16.9 16.9 0 01-.8 5h-6.5a41.9 41.9 0 00.3-5 41.9 41.9 0 00-.3-5zm5.1-3h-5.6a24.9 24.9 0 00-2.5-6.9 15.7 15.7 0 018.1 6.9zM18.3 9.1a24.9 24.9 0 00-2.5 6.9h-5.6a15.7 15.7 0 018.1-6.9zM8.8 19h6.5a41.8 41.8 0 000 10H8.8a16.9 16.9 0 01-.8-5 16.9 16.9 0 01.8-5zm1.4 13h5.6a24.9 24.9 0 002.5 6.9 15.7 15.7 0 01-8.1-6.9zm19.5 6.9a24.9 24.9 0 002.5-6.9h5.6a15.7 15.7 0 01-8.1 6.9z"/></svg>