<svg aria-hidden="true" class="rw-icon rw-icon--play-store" width="135" height="40" viewBox="0 0 135 40"><defs><linearGradient id="a" data-name="Naamloos verloop" x1="21.78" y1="700.67" x2="5" y2="717.45" gradientTransform="translate(0 -692)" gradientUnits="userSpaceOnUse"><stop offset="0" stop-color="#00a0ff"/><stop offset=".01" stop-color="#00a1ff"/><stop offset=".26" stop-color="#00beff"/><stop offset=".51" stop-color="#00d2ff"/><stop offset=".76" stop-color="#00dfff"/><stop offset="1" stop-color="#00e3ff"/></linearGradient><linearGradient id="b" data-name="Naamloos verloop 2" x1="33.83" y1="711.95" x2="9.64" y2="711.95" gradientTransform="translate(0 -692)" gradientUnits="userSpaceOnUse"><stop offset="0" stop-color="#ffe000"/><stop offset=".41" stop-color="#ffbd00"/><stop offset=".78" stop-color="orange"/><stop offset="1" stop-color="#ff9c00"/></linearGradient><linearGradient id="c" data-name="Naamloos verloop 3" x1="24.81" y1="714.24" x2="2.05" y2="737" gradientTransform="translate(0 -692)" gradientUnits="userSpaceOnUse"><stop offset="0" stop-color="#ff3a44"/><stop offset="1" stop-color="#c31162"/></linearGradient><linearGradient id="d" data-name="Naamloos verloop 4" x1="7.3" y1="692.14" x2="17.46" y2="702.31" gradientTransform="translate(0 -692)" gradientUnits="userSpaceOnUse"><stop offset="0" stop-color="#32a071"/><stop offset=".07" stop-color="#2da771"/><stop offset=".48" stop-color="#15cf74"/><stop offset=".8" stop-color="#06e775"/><stop offset="1" stop-color="#00f076"/></linearGradient></defs><rect width="135" height="40" rx="5" ry="5"/><path d="M130 .8a4.2 4.2 0 014.2 4.2v30a4.2 4.2 0 01-4.2 4.2H5A4.2 4.2 0 01.8 35V5A4.2 4.2 0 015 .8h125m0-.8H5a5 5 0 00-5 5v30a5.2 5.2 0 005 5h125a5 5 0 005-5V5a5 5 0 00-5-5z" fill="#a6a6a6"/><path d="M68.1 21.7a4.3 4.3 0 104.3 4.3 4.2 4.2 0 00-4.1-4.3zm0 6.8a2.4 2.4 0 01-2.4-2.4 2.4 2.4 0 014.8 0 2.4 2.4 0 01-2.3 2.5zm-9.3-6.8a4.3 4.3 0 104.3 4.3 4.2 4.2 0 00-4.1-4.3zm0 6.8a2.4 2.4 0 01-2.4-2.4 2.4 2.4 0 014.8 0 2.4 2.4 0 01-2.3 2.5zM47.7 23v1.8h4.4a4 4 0 01-4.4 3.6 4.7 4.7 0 01-4.7-4.7 4.7 4.7 0 014.5-4.9 5 5 0 013.5 1.3l1.3-1.3a6.5 6.5 0 00-4.6-1.8 6.6 6.6 0 000 13.2 6.3 6.3 0 004.7-1.8 6.6 6.6 0 001.5-4.2 4.9 4.9 0 00-.1-1.2zm45.4 1.4a4.1 4.1 0 00-3.7-2.7 4 4 0 00-4 4v.3a4.1 4.1 0 004 4.2h.2a4.4 4.4 0 003.6-1.9l-1.5-.9a2.6 2.6 0 01-2.1 1.1 2.2 2.2 0 01-2-1.2l5.6-2.4zm-5.8 1.4a2.2 2.2 0 012-2.4h.2a1.7 1.7 0 011.6.9zM82.6 30h1.9V17.5h-1.9zm-3-7.3h-.1a3.2 3.2 0 00-2.2-1 4.2 4.2 0 00-4.1 4.3 4.1 4.1 0 004 4.2h.1a3.1 3.1 0 002.2-.9h.1v.6a2.2 2.2 0 01-1.9 2.5h-.4a2.3 2.3 0 01-2.1-1.5l-1.7.6a4.1 4.1 0 003.8 2.5c2.2 0 4-1.2 4-4.4V22h-1.7zm-2.2 5.8a2.3 2.3 0 01-2.3-2.3V26a2.3 2.3 0 014.6 0 2.3 2.3 0 01-2.1 2.5zm24.4-11h-4.5V30h1.9v-4.8h2.6a4 4 0 004.5-3.2 3.9 3.9 0 00-3.3-4.5 2.4 2.4 0 00-1.2 0zm.1 6h-2.7v-4.3h2.7a2.2 2.2 0 011.7 2.6 2.3 2.3 0 01-1.7 1.7zm11.5-1.8a3.5 3.5 0 00-3.3 1.9l1.6.7a1.7 1.7 0 011.7-.9 1.8 1.8 0 012 1.6 4.6 4.6 0 00-2-.5c-1.8 0-3.6 1-3.6 2.9a2.9 2.9 0 003.1 2.7 2.5 2.5 0 002.4-1.2h.1v.9h1.8v-4.6c0-2.3-1.7-3.5-3.8-3.5zm-.2 6.8c-.7 0-1.5-.3-1.5-1s1.1-1.3 2-1.3a3.3 3.3 0 011.7.4 2.2 2.2 0 01-2.2 1.9zm10.5-6.5l-2.1 5.4h-.1l-2.2-5.4h-2l3.3 7.5-1.9 4.3h2l5.1-11.8zm-16.8 8h1.9V17.5h-1.9z" fill="#fff"/><path d="M10.4 7.5a2.3 2.3 0 00-.4 1.4V31a2.3 2.3 0 00.4 1.4h.1l12.4-12.3v-.2L10.5 7.4z" fill="url(#a)"/><path d="M27 24.2l-4.1-4.1v-.2l4.1-4.2h.1l4.9 2.8c1.4.8 1.4 2.1 0 2.9l-4.9 2.8z" fill="url(#b)"/><path d="M27.1 24.2L22.9 20 10.4 32.4a1.5 1.5 0 002.1.1l14.6-8.3" fill="url(#c)"/><path d="M27.1 15.7L12.5 7.4a1.8 1.8 0 00-2.1.1L22.9 20z" fill="url(#d)"/><path d="M27 24.1l-14.5 8.2a1.7 1.7 0 01-2 .1 1.5 1.5 0 002 0l14.6-8.3z" opacity=".2" style="isolation:isolate"/><path d="M10.4 32.3a2.3 2.3 0 01-.4-1.4 2.3 2.3 0 00.4 1.4zM32 21.3l-5 2.8h.1l4.9-2.7c.7-.4 1.1-.9 1.1-1.4a2.8 2.8 0 01-1.1 1.3z" opacity=".12" style="isolation:isolate"/><path d="M12.5 7.6L32 18.7a2.1 2.1 0 011.1 1.3 1.9 1.9 0 00-1.1-1.5L12.5 7.4c-1.4-.8-2.5-.1-2.5 1.5v.2c0-1.6 1.1-2.3 2.5-1.5z" fill="#fff" opacity=".25" style="isolation:isolate"/><g fill="#fff" stroke="#fff" stroke-miterlimit="10" stroke-width=".2"><path d="M46.2 12.2a3.1 3.1 0 01-4.4 0h0a3.1 3.1 0 01-.9-2.2 3.1 3.1 0 015.3-2.3h0a3.2 3.2 0 01.9 2.3 3.1 3.1 0 01-.9 2.2zm-3.8-.5a2.4 2.4 0 001.6.7 2.5 2.5 0 001.6-4.2 2.4 2.4 0 00-3.2 0 2.4 2.4 0 00-.7 1.8 2.2 2.2 0 00.7 1.7zM48.2 13V7h.9l2.9 4.6h.1V7h.8v6H52l-3-4.9h-.1V13zM56.2 13h-.7V7.7h-1.7V7h4.1v.7h-1.7zM58.9 13V7h1.8a2.7 2.7 0 012.2.8 3.1 3.1 0 01.9 2.2 2.7 2.7 0 01-.9 2.1 3.1 3.1 0 01-2.2.9zm.7-.8h1.1a2.7 2.7 0 001.7-.6A2.3 2.3 0 0063 10a2.1 2.1 0 00-1.9-2.3h-1.5zM68.3 7.7h-2.7v1.9h2.5v.7h-2.5v1.9h2.7v.8h-3.5V7h3.5zM74 7h0l-2.2 2.6 2.3 3.3h-.9l-2-2.8-.9 1v1.8h-.8v-6h.8V10h0L73 7zM76.9 13V7h.8v2.5h3V7h.8v6h-.8v-2.7h-3V13zM86.4 7.7h-2.8v1.9h2.5v.7h-2.5v1.9h2.8v.8h-3.5V7h3.5zM89.6 13h-.8V7.7h-1.6V7h4.1v.7h-1.7zM99.1 12.2a3.1 3.1 0 01-4.4 0h0a3.1 3.1 0 01-.9-2.2 3.1 3.1 0 015.3-2.3h0a3.2 3.2 0 01.9 2.3 3.1 3.1 0 01-.9 2.2zm-3.8-.5a2.2 2.2 0 003.2 0 2.2 2.2 0 00.7-1.7 2.4 2.4 0 00-.7-1.8 2.4 2.4 0 00-3.2 0 2.4 2.4 0 00-.7 1.8 2.2 2.2 0 00.7 1.7zM101.8 13h-.7V7h2a1.9 1.9 0 011.3.5 1.6 1.6 0 01.6 1.3 1.4 1.4 0 01-.6 1.2 1.9 1.9 0 01-1.3.5h-1.3zm0-3.2h1.3a1.1 1.1 0 00.8-.3.9.9 0 00.3-.7 1 1 0 00-.9-1.1h-1.5z"/></g></svg>