<svg aria-hidden="true" class="rw-icon rw-icon--play-store" width="135" height="40" viewBox="0 0 135 40"><defs><linearGradient id="a" data-name="Naamloos verloop 6" x1="21.77" y1="700.68" x2="4.99" y2="717.46" gradientTransform="translate(0 -692)" gradientUnits="userSpaceOnUse"><stop offset="0" stop-color="#00a0ff"/><stop offset=".01" stop-color="#00a1ff"/><stop offset=".26" stop-color="#00beff"/><stop offset=".51" stop-color="#00d2ff"/><stop offset=".76" stop-color="#00dfff"/><stop offset="1" stop-color="#00e3ff"/></linearGradient><linearGradient id="b" data-name="Naamloos verloop 2" x1="33.83" y1="712" x2="9.64" y2="712" gradientTransform="translate(0 -692)" gradientUnits="userSpaceOnUse"><stop offset="0" stop-color="#ffe000"/><stop offset=".41" stop-color="#ffbd00"/><stop offset=".78" stop-color="orange"/><stop offset="1" stop-color="#ff9c00"/></linearGradient><linearGradient id="c" data-name="Naamloos verloop 3" x1="24.81" y1="714.28" x2="2.05" y2="737.03" gradientTransform="translate(0 -692)" gradientUnits="userSpaceOnUse"><stop offset="0" stop-color="#ff3a44"/><stop offset="1" stop-color="#c31162"/></linearGradient><linearGradient id="d" data-name="Naamloos verloop 4" x1="7.29" y1="692.19" x2="17.45" y2="702.35" gradientTransform="translate(0 -692)" gradientUnits="userSpaceOnUse"><stop offset="0" stop-color="#32a071"/><stop offset=".07" stop-color="#2da771"/><stop offset=".48" stop-color="#15cf74"/><stop offset=".8" stop-color="#06e775"/><stop offset="1" stop-color="#00f076"/></linearGradient></defs><rect width="135" height="40" rx="5" ry="5"/><path d="M130 .8a4.2 4.2 0 014.2 4.2v30a4.2 4.2 0 01-4.2 4.2H5A4.2 4.2 0 01.8 35V5A4.2 4.2 0 015 .8h125m0-.8H5a5.2 5.2 0 00-5 5v30a5 5 0 005 5h125a5 5 0 005-5V5a5 5 0 00-5-5z" fill="#a6a6a6"/><g fill="#fff" stroke="#fff" stroke-miterlimit="10" stroke-width=".2"><path d="M47.4 10.2a2.5 2.5 0 01-.7 2 3.1 3.1 0 01-4.4 0 3.1 3.1 0 012.2-5.3 2.5 2.5 0 011.2.2 2.2 2.2 0 01.9.7l-.5.5a2 2 0 00-1.6-.7 2.2 2.2 0 00-1.7.7 2.5 2.5 0 000 3.4h0a2.2 2.2 0 001.7.7 2 2 0 001.6-.7 1.7 1.7 0 00.5-1.2h-2.1v-.7h2.9zM52 7.7h-2.7v1.9h2.5v.8h-2.5v1.9H52v.7h-3.5V7H52zM55.3 13h-.8V7.7h-1.7V7H57v.7h-1.7zM59.9 13V7h.8v6zM64.1 13h-.7V7.7h-1.7V7h4.1v.7h-1.7zM73.6 12.2a3.1 3.1 0 01-4.4 0 3.1 3.1 0 114.4 0zm-3.8-.5a2.2 2.2 0 003.2 0 2.2 2.2 0 00.7-1.7 2.2 2.2 0 00-.7-1.7 2.2 2.2 0 00-3.2 0 2.2 2.2 0 00-.7 1.7 2.2 2.2 0 00.7 1.7zM75.6 13V7h.9l2.9 4.7h.1V7h.8v6h-.8l-3.1-4.9h0V13z"/></g><path d="M68.1 21.8a4.1 4.1 0 00-4.2 4v.2a4.3 4.3 0 008.5 1.3 2.9 2.9 0 000-1.3 4.1 4.1 0 00-4-4.2zm0 6.8a2.6 2.6 0 112.4-2.8v.2a2.5 2.5 0 01-2.4 2.6zm-9.3-6.8a4.1 4.1 0 00-4.2 4v.2a4.3 4.3 0 008.5 1.3 2.9 2.9 0 000-1.3 4.1 4.1 0 00-4-4.2zm0 6.8a2.6 2.6 0 112.4-2.8v.2a2.5 2.5 0 01-2.4 2.6zm-11.1-5.5v1.8h4.4a4.4 4.4 0 01-1 2.2 4.1 4.1 0 01-3.4 1.4 4.8 4.8 0 01-4.7-4.8 4.8 4.8 0 018-3.6l1.3-1.2a6.2 6.2 0 00-4.6-1.9 6.7 6.7 0 00-7.5 5.8 6.8 6.8 0 005.9 7.5h1.6a5.9 5.9 0 004.7-1.9 6.6 6.6 0 001.5-4.2 4.1 4.1 0 00-.1-1.1zm45.4 1.4a4 4 0 00-7.7 1.5 4.2 4.2 0 004.1 4.3h.1a4.4 4.4 0 003.6-1.9l-1.5-1a2.4 2.4 0 01-2.1 1.2 2.2 2.2 0 01-2-1.3l5.6-2.4zm-5.8 1.4a2.2 2.2 0 011.9-2.5h.3a1.7 1.7 0 011.6.9zM82.6 30h1.9V17.5h-1.9zm-3-7.3h-.1a3.1 3.1 0 00-2.2-.9 4.1 4.1 0 00-4.1 4.1 4.2 4.2 0 004.1 4.3 3.2 3.2 0 002.2-1h.1v.6a2.4 2.4 0 01-2.2 2.4 2.3 2.3 0 01-2.2-1.4l-1.7.7a4.1 4.1 0 003.8 2.5c2.2 0 4-1.3 4-4.5V22h-1.7zm-2.2 5.9a2.4 2.4 0 01-2.3-2.5 2.3 2.3 0 014.6 0 2.4 2.4 0 01-2.2 2.6zm24.4-11.1h-4.5V30h1.9v-4.7h2.6a3.9 3.9 0 100-7.8zm.1 6h-2.7v-4.3h2.7a2.2 2.2 0 012.1 2.2 2.1 2.1 0 01-2.1 2.1zm11.5-1.8a3.5 3.5 0 00-3.3 1.9l1.6.7a1.7 1.7 0 011.7-.9 1.8 1.8 0 012 1.6v.2a4.6 4.6 0 00-2-.5c-1.8 0-3.6 1-3.6 2.8a2.9 2.9 0 003.1 2.7 2.5 2.5 0 002.4-1.2h.1v1h1.8v-4.8a3.5 3.5 0 00-3.5-3.5zm-.2 6.9c-.7 0-1.5-.3-1.5-1.1s1.1-1.3 2-1.3a3.3 3.3 0 011.7.4 2.3 2.3 0 01-2.2 2zm10.5-6.6l-2.1 5.4h-.1l-2.2-5.4h-2l3.3 7.6-1.9 4.2h2l5.1-11.8zm-16.8 8h1.9V17.5h-1.9z" fill="#fff"/><path d="M10.4 7.5a2.3 2.3 0 00-.4 1.4v22.2a2.3 2.3 0 00.4 1.4h.1l12.4-12.4L10.5 7.5z" fill="url(#a)"/><path d="M27 24.3l-4.1-4.2 4.1-4.4h.1l4.9 2.9c1.4.8 1.4 2.1 0 2.8l-4.9 2.8z" fill="url(#b)"/><path d="M27.1 24.2L22.9 20 10.4 32.5a1.7 1.7 0 002.1 0l14.6-8.3" fill="url(#c)"/><path d="M27.1 15.8L12.5 7.5a1.7 1.7 0 00-2.1 0L22.9 20z" fill="url(#d)"/><path d="M27 24.1l-14.5 8.3a1.8 1.8 0 01-2 0 1.5 1.5 0 002 0l14.6-8.3z" opacity=".2" style="isolation:isolate"/><path d="M10.4 32.3a2.3 2.3 0 01-.4-1.4v.2a2.3 2.3 0 00.4 1.4zM32 21.3l-5 2.8h.1l4.9-2.7c.7-.4 1.1-.9 1.1-1.4a2.4 2.4 0 01-1.1 1.3z" opacity=".12" style="isolation:isolate"/><path d="M12.5 7.6L32 18.7a2.4 2.4 0 011.1 1.3c0-.5-.4-1-1.1-1.4L12.5 7.5c-1.4-.8-2.5-.2-2.5 1.4v.2c0-1.6 1.1-2.3 2.5-1.5z" fill="#fff" opacity=".25" style="isolation:isolate"/></svg>