<svg class="rw-icon rw-icon--ideal" width="48" height="48" viewBox="0 0 48 48"><path d="M13.12 33.24h4.47v-7.424h-4.47v7.424zm4.808-11.135a2.53 2.53 0 11-5.062 0v-.001a2.53 2.53 0 115.062.001" fill="#000105"/><path d="M25.755 13.736c3.109 0 5.7.84 7.493 2.429 2.026 1.796 3.054 4.517 3.054 8.089 0 7.077-3.45 10.518-10.547 10.518h-14.12V13.736h14.12zm.305-1.612H10.019v24.259h16.04v-.005c3.504-.047 6.279-.915 8.248-2.587 2.396-2.032 3.61-5.241 3.61-9.537 0-2.054-.319-3.896-.949-5.476-.602-1.51-1.493-2.795-2.647-3.818-2.032-1.8-4.885-2.775-8.262-2.83l.001-.006z" fill="#000105"/><path d="M25.314 33.248h-5.67V15.707h5.67-.229c4.73 0 9.763 1.866 9.763 8.793 0 7.324-5.034 8.748-9.763 8.748h.229" fill="#ba1d63"/><path d="M19.517 20.95v2.79h.638c.238 0 .41-.013.516-.04a.792.792 0 00.345-.175c.091-.083.166-.218.223-.407.058-.189.087-.446.087-.771 0-.326-.029-.576-.087-.75a.966.966 0 00-.242-.408.815.815 0 00-.395-.198c-.12-.027-.353-.04-.701-.04l-.384-.001zm-.85-.715h1.556c.351 0 .619.027.803.08.247.073.46.203.636.39.177.185.31.413.403.683.092.27.138.602.138.997 0 .348-.043.647-.13.899-.089.28-.244.536-.451.745a1.498 1.498 0 01-.599.337c-.188.06-.44.09-.754.09h-1.603l.001-4.221z" fill="#fff"/><path d="M20.223 20.35c.338 0 .598.026.77.076.227.067.424.187.585.358.164.173.291.389.378.641.087.257.132.58.132.96 0 .333-.042.623-.124.861a1.762 1.762 0 01-.423.7c-.134.132-.32.236-.553.31-.176.056-.418.084-.719.084h-1.488v-3.99h1.442zm-1.673-.23v4.45h1.718c.325 0 .59-.031.789-.094.268-.086.484-.208.644-.364.208-.202.37-.468.48-.79.09-.263.136-.578.136-.937 0-.406-.048-.754-.144-1.034a1.978 1.978 0 00-.428-.726 1.53 1.53 0 00-.687-.42c-.197-.058-.47-.086-.836-.086l-1.672.001z" fill="#fff"/><path d="M19.9 21.066c.422 0 .6.02.677.037.139.03.253.087.341.17.09.084.16.205.212.36.053.162.08.402.08.714s-.027.56-.08.737c-.052.168-.116.287-.191.355a.681.681 0 01-.296.149c-.096.024-.26.037-.488.037h-.522v-2.56h.267v.001zm-.498-.231v3.02h.753c.25 0 .428-.014.544-.043a.91.91 0 00.394-.202c.108-.097.192-.247.257-.458.061-.202.091-.465.091-.805 0-.342-.03-.599-.092-.787a1.09 1.09 0 00-.273-.455.928.928 0 00-.45-.227c-.128-.03-.365-.043-.725-.043h-.5.001zm3.764 3.62v-4.22h3.125v.715h-2.274v.935h2.115v.715h-2.115v1.14h2.354v.715h-3.205" fill="#fff"/><path d="M26.175 20.35v.485h-2.273V22h2.114v.485h-2.114v1.37h2.354v.485H23.28v-3.99h2.895zm-3.124-.23v4.45h3.436v-.945h-2.355v-.91h2.115v-.945h-2.115v-.704h2.274v-.947H23.05l.001.001zm6.517 2.662l-.582-1.563-.57 1.563h1.152zm1.57 1.673h-.928l-.368-.957h-1.686l-.35.957h-.904l1.64-4.22h.907l1.688 4.22h.001z" fill="#fff"/><path d="M29.371 20.35l1.596 3.99h-.678l-.368-.958h-1.846l-.35.958h-.654l1.55-3.99h.75zm-.908-.23l-1.73 4.45h1.154l.35-.957h1.526l.368.958h1.177l-1.78-4.452-1.065.001z" fill="#fff"/><path d="M28.987 21.552l.415 1.115h-.82l.405-1.115zm-.736 1.346h1.483l-.749-2.013-.734 2.013zm3.598 1.557V20.27h.851v3.471h2.12v.715h-2.97" fill="#fff"/><path d="M32.585 20.385v3.47h2.12v.485h-2.74v-3.955h.62zm-.851-.231v4.417h3.202v-.946h-2.12v-3.471h-1.082z" fill="#fff"/></svg>