<svg aria-hidden="true" class="rw-icon rw-icon--instagram" width="48" height="48" viewBox="0 0 48 48"><path fill="currentcolor" d="M24 8h6.6a12.4 12.4 0 013.9.7 8.2 8.2 0 012.8 1.9 8.2 8.2 0 011.9 2.8 12.4 12.4 0 01.7 3.9c.1 1.7.1 2.3.1 6.6s0 4.9-.1 6.6a12.4 12.4 0 01-.7 3.9 9 9 0 01-4.7 4.7 12.4 12.4 0 01-3.9.7H17.4a12.4 12.4 0 01-3.9-.7 8.2 8.2 0 01-2.8-1.9 8.2 8.2 0 01-1.9-2.8 12.4 12.4 0 01-.7-3.9C8 28.9 8 28.3 8 24s0-4.9.1-6.6a12.4 12.4 0 01.7-3.9 8.2 8.2 0 011.9-2.8 8.2 8.2 0 012.8-1.9 12.4 12.4 0 013.9-.7zm0 2.9h-6.5a7.5 7.5 0 00-2.9.5 6.2 6.2 0 00-1.9 1.2 6.2 6.2 0 00-1.2 1.9 7.5 7.5 0 00-.5 2.9c-.1 1.7-.1 2.2-.1 6.5s0 4.8.1 6.5a7.5 7.5 0 00.5 2.9 6.2 6.2 0 001.2 1.9 6.2 6.2 0 001.9 1.2 7.5 7.5 0 002.9.5h13a7.5 7.5 0 002.9-.5 6.2 6.2 0 001.9-1.2 6.2 6.2 0 001.2-1.9 7.5 7.5 0 00.5-2.9c.1-1.7.1-2.2.1-6.5s0-4.8-.1-6.5a7.5 7.5 0 00-.5-2.9 6.2 6.2 0 00-1.2-1.9 6.2 6.2 0 00-1.9-1.2 7.5 7.5 0 00-2.9-.5zm0 5.1a8 8 0 108 8 8 8 0 00-8-8zm0 3a5 5 0 105 5 5 5 0 00-5-5zm9-5a2 2 0 102 2 2 2 0 00-2-2z"/></svg>