<svg aria-hidden="true" class="rw-icon rw-icon--indoor-parking" width="48" height="48" viewBox="0 0 48 48"><g fill="currentcolor"><path d="M5 5h38v3H5zM34.3 20.9a2.9 2.9 0 00-2.7-1.9H16.4a2.9 2.9 0 00-2.7 1.9l-3 8.6a3.6 3.6 0 00-.2 1V42a.9.9 0 00.8 1H14a.9.9 0 001-.8V39h18v3a.9.9 0 00.8 1h2.7a.9.9 0 001-.8V30.5a3.6 3.6 0 00-.2-1zm-18.7.7a.8.8 0 01.8-.6h15.2a.8.8 0 01.8.6l2.3 6.4H13.3zM19 36h-5a1.5 1.5 0 01-1.5-1.5v-2h5A1.5 1.5 0 0119 34zm16.5-1.5A1.5 1.5 0 0134 36h-5v-2a1.5 1.5 0 011.5-1.5h5z"/></g></svg>