<svg aria-hidden="true" class="rw-icon rw-icon--luggage-rules" width="48" height="48" viewBox="0 0 48 48"><g fill="currentcolor"><path d="M5 17.1v21.4A2.5 2.5 0 007.5 41h2.4V14.6H7.5A2.5 2.5 0 005 17.1zM40.5 14.6h-2.4V41h2.4a2.5 2.5 0 002.5-2.5V17.1a2.5 2.5 0 00-2.5-2.5zM30.8 9.1a2.5 2.5 0 00-2.5-2.5h-8.6a2.5 2.5 0 00-2.5 2.5v5.5h-4.9V41h23.4V14.6h-4.9zM24 34.6a1.2 1.2 0 111.2-1.2 1.2 1.2 0 01-1.2 1.2zm2.8-6.5l-.9.6a2.2 2.2 0 00-1 2h-2.1c0-.2-.1-.3-.1-.5a3.7 3.7 0 011.7-3.2l1-.7a2.2 2.2 0 001-1.8 2.1 2.1 0 00-2.1-2.1h-.2a2.3 2.3 0 00-2.3 2.3v.4h-2.3a1.3 1.3 0 01-.1-.6 4.4 4.4 0 014.4-4.4h.3c3.1 0 4.8 2.1 4.8 4.2a4.4 4.4 0 01-2.1 3.8zm2.1-13.5h-9.8V9.1a.6.6 0 01.6-.6h8.6a.6.6 0 01.6.6z"/></g></svg>