<svg aria-hidden="true" class="rw-icon rw-icon--logo-schiphol" width="265" height="70" viewBox="0 0 265 70"><g fill="#0d0a52"><path d="M56.9 46.9c-5.5 0-8.2-4.1-8.3-10.2s3.2-9.8 8.1-9.9a17.3 17.3 0 017 1.8l1-9.4a36.3 36.3 0 00-9.8-1.4c-5.7 0-10.2 2.1-13.2 5.5s-4.5 8.2-4.6 13.4c0 5.5 1.5 10.3 4.6 13.8S49.3 56 55.2 56c4 0 7.9-.5 10.1-1.4l-.5-9.8c-2.4.9-5 2.1-7.9 2.1zM22.5 26.8c-2.6-1.1-5.1-1.9-6.9-2.9s-2.7-1.9-2.7-3.4a4.8 4.8 0 012-4.4 9.2 9.2 0 014.3-1.1c3.1 0 6.5 1 10.4 2.5l1.1-10a42.8 42.8 0 00-12.3-2A20.9 20.9 0 006.5 8.9C3.2 11.4 1 15.3 1 20.8c0 8.3 5.7 11.6 10.9 13.7l6.9 3c3.8 1.9 3.2 6.3.4 7.6a10.9 10.9 0 01-5 1.3c-3.4 0-6.9-1-11.4-3.5l-1.2 11A49.1 49.1 0 0014.7 56h.1c4.8 0 9.4-1 12.9-3.4s5.7-7.1 5.7-11.8c0-8-5.7-11.9-10.9-14zM242.6 22.9a20.7 20.7 0 00-27.2 0 19.8 19.8 0 00-5.5 14.2 19.2 19.2 0 005 13.4c3.3 3.4 8.1 5.5 14.1 5.5a19.1 19.1 0 0014.1-5.5 19.2 19.2 0 005-13.4 19.8 19.8 0 00-5.5-14.2z"/><path d="M235 43.6a7.1 7.1 0 01-9.8 2.2 6.6 6.6 0 01-2.2-2.2 15.1 15.1 0 01-1.6-7.6c0-4.8 2.5-9.2 7.6-9.2s7.6 4.3 7.6 9.3a14.9 14.9 0 01-1.6 7.5z" fill="#fff"/><path d="M140.8 52.2a12.3 12.3 0 009.4 3.6 14.1 14.1 0 0012.1-5.9c2.4-3.6 3.4-8.3 3.4-13.1 0-4.9-1-9.5-3.4-13s-6.4-5.8-11.9-5.8a13.1 13.1 0 00-9.6 3.8v-3.2h-10.7V69h7.5a3.2 3.2 0 003.2-3.2z"/><path d="M153 43.7c-1.1 2-2.5 3.2-5 3.2a5.6 5.6 0 01-5.3-3.2 14.5 14.5 0 01-1.6-6.8 12.7 12.7 0 011.7-6.8 6.5 6.5 0 015.3-3.2 5.5 5.5 0 015 3.3 15.5 15.5 0 011.4 6.7 15.7 15.7 0 01-1.5 6.8z" fill="#fff"/><path d="M119.4 55.2a3.2 3.2 0 003.2-3.2V18.6h-11v36.6zM114.7 5.7c-1.7.4-3.1 1.5-3.1 3.2v5.9h11V4.1zM256.1 2.4c-1.8.4-3.2 1.4-3.2 3.2v49.6h7.9A3.2 3.2 0 00264 52V.8zM93.2 35.5v19.7h7.8a3.2 3.2 0 003.2-3.2V32.3c0-4-.9-7.6-3-10.3s-5.4-4.3-9.7-4.3a14.8 14.8 0 00-10 3.9V1.1l-7.8 1.6c-1.8.4-3.2 1.5-3.2 3.2v49.3h11V36.4a16.4 16.4 0 011.4-6.1 5.8 5.8 0 015.5-3.5c2.5.1 3.4 1 4.1 2.7a17.6 17.6 0 01.7 6zM194.2 35.5v19.7h7.9a3.3 3.3 0 003.2-3.2V32.3c-.1-4-1-7.6-3.1-10.3s-5.4-4.3-9.7-4.3a14.5 14.5 0 00-9.9 3.9V1.1l-7.9 1.6c-1.8.4-3.2 1.5-3.2 3.2v49.3h11.1V36.4a14.3 14.3 0 011.4-6.1 5.9 5.9 0 015.4-3.5c2.5.1 3.4 1 4.1 2.7a17.6 17.6 0 01.7 6z"/></g></svg>