<svg aria-hidden="true" class="rw-icon rw-icon--link" width="48" height="48" viewBox="0 0 48 48"><g fill="currentcolor"><path d="M26.1 19.8l-6.3 6.3a1.5 1.5 0 00.3 2.1 1.5 1.5 0 001.8 0l6.3-6.3a1.5 1.5 0 00-.3-2.1 1.5 1.5 0 00-1.8 0z"/><path d="M24.7 29.7l-3.2 3.1a4.5 4.5 0 01-6.3-6.3l3.1-3.2a1.5 1.5 0 00-.3-2.1 1.5 1.5 0 00-1.8 0L13 24.4A7.5 7.5 0 0023.6 35l3.2-3.2a1.5 1.5 0 00-.3-2.1 1.5 1.5 0 00-1.8 0zM35 13a7.5 7.5 0 00-10.6 0l-3.2 3.2a1.5 1.5 0 00.3 2.1 1.5 1.5 0 001.8 0l3.2-3.1a4.5 4.5 0 016.3 6.3l-3.1 3.2a1.5 1.5 0 00.3 2.1 1.5 1.5 0 001.8 0l3.2-3.2A7.5 7.5 0 0035 13z"/></g></svg>