<svg aria-hidden="true" class="rw-icon rw-icon--lounge" width="48" height="48" viewBox="0 0 48 48"><g fill="currentcolor"><path d="M33 28H16l-5.6-12.4a1.4 1.4 0 00-1.2-.7H6.4a1.2 1.2 0 00-1.2 1.2v.2L9 43h20.6l4.3-13.8a.8.8 0 00-.5-1.1zM15.6 16a3.5 3.5 0 003.5-3.5 3.6 3.6 0 00-4.1-3 3.7 3.7 0 00-3 3 3.5 3.5 0 003.5 3.5z"/><path d="M17.7 17.6a3.3 3.3 0 00-1.8 4.3c0 .1.1.2.1.3l1.9 3.8h12.9a1.2 1.2 0 001.2-1.2 1.3 1.3 0 00-1.2-1.1h-6.2l-2.9-4.8a3.5 3.5 0 00-4-1.3zM40.7 40.6l-5.8-8.2-1.1 3.6 4.5 6.4a1.4 1.4 0 001.2.6 1.6 1.6 0 00.9-.3 1.5 1.5 0 00.3-2.1z"/></g></svg>