<svg aria-hidden="true" class="rw-icon rw-icon--luggage-claim" width="48" height="48" viewBox="0 0 48 48"><g fill="currentcolor"><circle cx="7.7" cy="40.8" r="2.3"/><circle cx="14.2" cy="40.8" r="2.3"/><circle cx="20.7" cy="40.8" r="2.3"/><circle cx="27.2" cy="40.8" r="2.3"/><circle cx="33.7" cy="40.8" r="2.3"/><circle cx="40.2" cy="40.8" r="2.3"/><path d="M5 35.5h38V37H5zM10 33h2V11.5h-2a2 2 0 00-2 2V31a2 2 0 002 2zM40 31V13.5a2 2 0 00-2-2h-2V33h2a2 2 0 002-2zM33.5 11.5h-4V7a2 2 0 00-2-2h-7a2 2 0 00-2 2v4.5h-4V33h19zm-5.5 0h-8V7a.5.5 0 01.5-.5h7a.5.5 0 01.5.5z"/></g></svg>