<svg class="rw-icon rw-icon--mastercard" width="48" height="48" viewBox="0 0 48 48"><path d="M46.369 23.496c.002 7.411-6.012 13.421-13.431 13.423-7.421.002-13.436-6.005-13.439-13.416v-.007c0-7.412 6.014-13.422 13.432-13.424 7.421-.002 13.436 6.005 13.439 13.417l-.001.007z" fill="#f90"/><path d="M14.773 10.073c-7.376.046-13.348 6.042-13.348 13.42 0 7.407 6.019 13.42 13.435 13.42 3.48 0 6.652-1.325 9.04-3.496h-.002.003c.489-.445.945-.926 1.365-1.438h-2.754a12.864 12.864 0 01-1.001-1.383h4.747c.289-.461.55-.94.781-1.437h-6.313a13.182 13.182 0 01-.562-1.41H27.6c.449-1.338.692-2.769.692-4.256 0-.987-.107-1.948-.31-2.874H19.77c.102-.476.23-.947.383-1.41h7.439a13.31 13.31 0 00-.579-1.437h-6.288c.227-.484.484-.955.771-1.41h4.743a13.59 13.59 0 00-1.043-1.437h-2.645c.414-.486.864-.939 1.348-1.356a13.395 13.395 0 00-9.042-3.497h-.084z" fill="#c00"/><path d="M45.237 30.858c.073 0 .144.019.213.056a.44.44 0 01.163.594.4.4 0 01-.16.161.443.443 0 01-.432 0 .44.44 0 01-.16-.594.399.399 0 01.162-.161.455.455 0 01.214-.056m0 .072a.381.381 0 00-.178.047.34.34 0 00-.136.135.36.36 0 00.314.542.367.367 0 00.314-.182.363.363 0 00-.314-.542m-.191.602v-.467h.162c.054 0 .094.004.118.013a.12.12 0 01.08.113.12.12 0 01-.036.089.147.147 0 01-.097.043.15.15 0 01.04.025.468.468 0 01.069.092l.057.092h-.092l-.041-.074a.386.386 0 00-.079-.108.093.093 0 00-.06-.016h-.045v.198h-.076m.076-.264h.092c.044 0 .073-.007.089-.019a.06.06 0 00.024-.051.063.063 0 00-.012-.037.072.072 0 00-.032-.025.243.243 0 00-.076-.008h-.085v.14" fill="#fcb340"/><g fill="#006"><path d="M19.044 27.564l.179-1.214c-.097 0-.242.042-.368.042-.499 0-.562-.265-.522-.46l.491-2.443h.757l.156-1.379h-.714l.145-.836h-1.492c-.032.032-.844 4.699-.844 5.267 0 .841.473 1.216 1.14 1.21.522-.004.929-.148 1.072-.187zm.499-2.089c0 2.02 1.334 2.499 2.471 2.499 1.05 0 1.6-.242 1.6-.242l.252-1.379s-.886.36-1.607.36c-1.536 0-1.266-1.144-1.266-1.144l2.951.01s.188-.926.188-1.303c0-.942-.513-2.097-2.085-2.097-1.438 0-2.504 1.548-2.504 3.296zm2.509-2.017c.808 0 .658.906.658.98h-1.588c.001-.094.151-.98.93-.98zm9.531 3.945l.257-1.558s-.703.351-1.184.351c-1.015 0-1.421-.774-1.421-1.605 0-1.687.872-2.614 1.845-2.614.729 0 1.314.409 1.314.409l.233-1.514s-.69-.498-1.433-.501c-2.237-.01-3.516 1.546-3.516 4.234 0 1.782.947 2.994 2.654 2.994.482 0 1.251-.196 1.251-.196zm-20.225-5.224c-.982 0-1.733.315-1.733.315l-.207 1.231s.62-.252 1.559-.252c.533 0 .922.06.922.492 0 .263-.048.36-.048.36s-.419-.035-.614-.035c-1.397 0-2.537.527-2.537 2.117 0 1.253.852 1.54 1.381 1.54 1.01 0 1.409-.636 1.433-.639l-.014.528h1.26l.562-3.934c0-1.67-1.458-1.723-1.964-1.723zm.218 3.195c.027.24-.062 1.375-.924 1.375-.445 0-.56-.339-.56-.538 0-.392.213-.862 1.261-.862.244 0 .181.018.223.025z"/><path d="M14.823 27.909c.321 0 2.164.082 2.164-1.816 0-1.776-1.705-1.424-1.705-2.138 0-.354.278-.467.786-.467.201 0 .978.065.978.065l.179-1.263s-.502-.111-1.32-.111c-1.058 0-2.132.421-2.132 1.865 0 1.636 1.791 1.472 1.791 2.161 0 .46-.501.498-.886.498-.668 0-1.268-.229-1.27-.218l-.191 1.249c.036.01.406.175 1.606.175zm28.645-6.634l-.259 1.924s-.538-.743-1.382-.743c-1.586 0-2.403 1.578-2.403 3.392 0 1.172.583 2.319 1.774 2.319.857 0 1.332-.597 1.332-.597l-.063.51h1.391l1.093-6.795-1.483-.01zm-.614 3.74c0 .755-.375 1.762-1.149 1.762-.515 0-.757-.431-.757-1.109 0-1.108.499-1.839 1.127-1.839.515.001.779.355.779 1.186zm-39.057 3.08l.87-5.13.128 5.13h.987l1.839-5.13-.814 5.13H8.27l1.128-6.803-2.327-.018-1.384 4.166-.039-4.148h-2.13l-1.145 6.803h1.424zm21.734.118c.416-2.365.564-4.233 1.779-3.847.174-.915.591-1.711.78-2.098 0 0-.06-.089-.436-.089-.641 0-1.496 1.297-1.496 1.297l.128-.802h-1.332l-.892 5.538h1.469zm8.81-6.328c-.981 0-1.733.315-1.733.315l-.207 1.232s.621-.252 1.559-.252c.533 0 .922.059.922.492 0 .262-.047.359-.047.359s-.42-.035-.615-.035c-1.396 0-2.537.528-2.537 2.118 0 1.253.852 1.54 1.382 1.54 1.009 0 1.409-.636 1.431-.638l-.012.529h1.26l.562-3.935c-.001-1.671-1.459-1.725-1.965-1.725zm.218 3.195c.027.24-.062 1.376-.924 1.376-.445 0-.56-.339-.56-.539 0-.391.213-.861 1.261-.861.244 0 .182.018.223.024z"/><path d="M38.183 27.717c.229-1.74.652-4.183 1.779-3.846.174-.916.006-.913-.369-.913-.641 0-.783.023-.783.023l.129-.804h-1.332l-.893 5.538 1.469.002z"/></g><g fill="#fff"><path d="M19.46 27.262l.179-1.214c-.097 0-.242.042-.368.042-.499 0-.553-.264-.522-.46l.403-2.479h.756l.184-1.343h-.715l.145-.836h-1.43c-.032.032-.844 4.699-.844 5.267 0 .841.473 1.216 1.14 1.21.523-.004.93-.148 1.072-.187zm.5-2.088c0 2.019 1.334 2.498 2.471 2.498 1.05 0 1.51-.233 1.51-.233l.252-1.379s-.798.351-1.518.351c-1.537 0-1.267-1.143-1.267-1.143h2.908s.187-.927.187-1.303c0-.942-.469-2.089-2.039-2.089-1.44 0-2.504 1.549-2.504 3.298zm2.508-2.019c.808 0 .658.906.658.98h-1.588c0-.094.15-.98.93-.98zm9.451 3.795l.256-1.557s-.702.351-1.183.351c-1.015 0-1.421-.775-1.421-1.605 0-1.687.872-2.614 1.845-2.614.729 0 1.314.408 1.314.408l.233-1.513s-.868-.351-1.611-.351c-1.651 0-3.257 1.431-3.257 4.119 0 1.782.868 2.959 2.575 2.959.48 0 1.249-.197 1.249-.197zm-20.146-5.075c-.981 0-1.733.316-1.733.316l-.207 1.231s.621-.252 1.559-.252c.533 0 .923.06.923.492 0 .263-.048.36-.048.36s-.419-.036-.614-.036c-1.237 0-2.537.528-2.537 2.118 0 1.253.852 1.54 1.381 1.54 1.009 0 1.445-.654 1.468-.656l-.048.546h1.261l.562-3.935c-.002-1.669-1.46-1.724-1.967-1.724zm.307 3.205c.027.24-.151 1.367-1.012 1.367-.445 0-.561-.339-.561-.54 0-.39.213-.86 1.262-.86.244 0 .27.027.311.033z"/><path d="M15.239 27.607c.322 0 2.164.081 2.164-1.817 0-1.775-1.704-1.424-1.704-2.137 0-.355.277-.468.785-.468.201 0 .978.065.978.065l.18-1.262s-.503-.112-1.32-.112c-1.058 0-2.132.421-2.132 1.866 0 1.636 1.791 1.472 1.791 2.16 0 .46-.501.498-.887.498-.667 0-1.268-.229-1.27-.218l-.191 1.249c.035.01.406.176 1.606.176zm28.694-6.632l-.308 1.912s-.538-.743-1.382-.743c-1.311 0-2.403 1.578-2.403 3.392 0 1.172.583 2.318 1.774 2.318.857 0 1.332-.596 1.332-.596l-.063.509h1.391l1.092-6.795-1.433.003zm-.664 3.728c0 .755-.374 1.764-1.149 1.764-.515 0-.755-.432-.755-1.11 0-1.108.498-1.839 1.126-1.839.514.001.778.354.778 1.185zm-39.1 3.073l.871-5.13.127 5.13h.986l1.839-5.13-.814 5.13h1.464l1.128-6.804H7.504l-1.41 4.176-.074-4.175H3.932l-1.144 6.804 1.381-.001zm21.778-.291c.416-2.364.494-4.285 1.486-3.934.174-.915.342-1.268.533-1.657 0 0-.089-.019-.276-.019-.641 0-1.115.875-1.115.875l.128-.804H25.37l-.893 5.538h1.47v.001zm9.069-6.053c-.981 0-1.733.315-1.733.315l-.207 1.231s.62-.252 1.559-.252c.533 0 .922.06.922.493 0 .261-.047.358-.047.358s-.42-.034-.615-.034c-1.237 0-2.537.527-2.537 2.117 0 1.253.852 1.54 1.381 1.54 1.01 0 1.445-.654 1.468-.656l-.047.546h1.26l.562-3.936c-.002-1.669-1.46-1.723-1.966-1.722zm.307 3.204c.027.24-.151 1.367-1.013 1.367-.444 0-.56-.339-.56-.539 0-.391.213-.862 1.261-.862.244.001.27.027.312.034zm2.943 2.405c.416-2.364.494-4.285 1.486-3.934.174-.915.343-1.268.533-1.656 0 0-.089-.019-.276-.019-.641 0-1.115.874-1.115.874l.128-.804H37.69l-.893 5.538h1.469v.001z"/><path d="M44.794 26.394a.439.439 0 01.376.217.437.437 0 01-.16.595.434.434 0 11-.216-.812m0 .072a.364.364 0 00-.316.542.368.368 0 00.496.135.365.365 0 00.133-.495.37.37 0 00-.313-.182m-.19.602v-.467h.162c.054 0 .095.004.119.014a.113.113 0 01.058.045.122.122 0 01-.015.158.141.141 0 01-.097.042.171.171 0 01.04.025.506.506 0 01.07.092l.057.092h-.093l-.041-.074a.386.386 0 00-.079-.108.093.093 0 00-.06-.016h-.045v.198l-.076-.001m.075-.262h.092c.044 0 .074-.007.089-.019a.062.062 0 00.024-.052.063.063 0 00-.012-.037.07.07 0 00-.032-.024.244.244 0 00-.076-.009h-.084l-.001.141"/></g></svg>