<svg aria-hidden="true" class="rw-icon rw-icon--outdoor-parking" width="48" height="48" viewBox="0 0 48 48"><g fill="currentcolor"><path d="M28.8 21.1a2.8 2.8 0 00-2.7-1.9H10.9a2.8 2.8 0 00-2.7 1.9l-3 8.6a3.6 3.6 0 00-.2 1v11.5a1.1 1.1 0 001 1h2.5a.9.9 0 001-1v-3h18v3a1.1 1.1 0 001 1H31a.9.9 0 001-1V30.7a3.6 3.6 0 00-.2-1zm-18.7.6a.9.9 0 01.8-.5h15.2a.9.9 0 01.8.5l2.3 6.5H7.9zm3.4 14.5h-5A1.5 1.5 0 017 34.7v-2h5a1.5 1.5 0 011.5 1.5zM30 34.7a1.5 1.5 0 01-1.5 1.5h-5v-2a1.5 1.5 0 011.5-1.5h5z"/><circle cx="35" cy="13" r="5"/><path d="M34.3 4h1.5v3h-1.5zM26.868 9.074l.75-1.299 2.598 1.5-.75 1.3zM26.883 16.856l2.598-1.5.75 1.3-2.598 1.5zM34.3 19h1.5v3h-1.5zM39.8 16.703l.75-1.3 2.598 1.5-.75 1.3zM39.791 9.361l2.598-1.5.75 1.3-2.598 1.5z"/></g></svg>