<svg aria-hidden="true" class="rw-icon rw-icon--odd-size" width="48" height="48" viewBox="0 0 48 48"><g fill="currentcolor"><path d="M16.2 16.6l-1.7-.4-.4 1.6 1.7.4.4-1.6zM14 24.9l-1.6-.4-.4 1.6 1.6.4.4-1.6z"/><path d="M18.3 5.1a3.8 3.8 0 00-4.7 2.7l-6.5 25a4 4 0 001.1 3.7 3.9 3.9 0 003.7 1 4.2 4.2 0 002.7-2.8L21 9.8a3.7 3.7 0 00-.4-2.9 3.8 3.8 0 00-2.3-1.8zm-2.2 20.8l-.3.8a1.4 1.4 0 01-1.6 1c0 .2 0 .3-.2.4h-.3c-.2 0-.3-.2-.3-.5l-1.7-.6c0 .2-.3.3-.5.3a.5.5 0 01-.3-.5 1.4 1.4 0 01-1-1.6l.3-.9a1.2 1.2 0 011.4-1h.2a.5.5 0 01.5-.3.5.5 0 01.3.5l1.7.4a.4.4 0 01.5-.2c.2 0 .3.2.3.5a1.4 1.4 0 011 1.7zm2.1-8.4l-.2.9a1.3 1.3 0 01-1.6.9.5.5 0 01-.5.3c-.2-.1-.4-.3-.3-.5l-1.7-.4a.4.4 0 01-.5.2c-.3 0-.4-.2-.3-.4H13a1.4 1.4 0 01-.9-1.7l.2-.8a1.3 1.3 0 011.6-.9c.1-.3.3-.4.5-.3s.4.2.4.5l1.6.4a.5.5 0 01.5-.3c.2 0 .4.3.4.5a1.3 1.3 0 01.9 1.6z"/><circle cx="6" cy="41" r="1"/><circle cx="10" cy="41" r="1"/><circle cx="14" cy="41" r="1"/><circle cx="18" cy="41" r="1"/><circle cx="22" cy="41" r="1"/><circle cx="26" cy="41" r="1"/><circle cx="30" cy="41" r="1"/><circle cx="34" cy="41" r="1"/><circle cx="38" cy="41" r="1"/><circle cx="42" cy="41" r="1"/><path d="M21.2 37h1.2V24.2h-1.2a1.2 1.2 0 00-1.2 1.2v10.4a1.2 1.2 0 001.2 1.2zM39 35.8V25.4a1.2 1.2 0 00-1.2-1.2h-1.2V37h1.2a1.2 1.2 0 001.2-1.2zM35.1 24.2h-2.3v-2.6a1.2 1.2 0 00-1.2-1.2h-4.2a1.2 1.2 0 00-1.2 1.2v2.6h-2.3V37h11.2zm-3.2 0h-4.8v-2.6a.3.3 0 01.3-.3h4.2a.3.3 0 01.3.3z"/></g></svg>