<svg aria-hidden="true" class="rw-icon rw-icon--parking-alt" width="48" height="48" viewBox="0 0 48 48"><g fill="currentcolor"><path d="M28.8 20.9a2.9 2.9 0 00-2.7-1.9H10.9a2.9 2.9 0 00-2.7 1.9l-3 8.6a3.6 3.6 0 00-.2 1V42a1 1 0 001 1h2.5a.9.9 0 001-1v-3h18v3a1 1 0 001 1H31a.9.9 0 001-1V30.5a3.6 3.6 0 00-.2-1zm-18.7.7a.8.8 0 01.8-.6h15.2a.8.8 0 01.8.6l2.3 6.4H7.9zM13.5 36h-5A1.5 1.5 0 017 34.5v-2h5a1.5 1.5 0 011.5 1.5zM30 34.5a1.5 1.5 0 01-1.5 1.5h-5v-2a1.5 1.5 0 011.5-1.5h5zM37 9.5h-1.5v2H37a.9.9 0 001-1 .9.9 0 00-1-1z"/><path d="M36.9 5h-1.3a6.8 6.8 0 00-.1 13.5V43H37V18.5A6.8 6.8 0 0036.9 5zm.1 8h-1.5v2.5H34V8h3a2.5 2.5 0 010 5z"/></g></svg>