<svg aria-hidden="true" class="rw-icon rw-icon--pick-up-drop-off-alt" width="48" height="48" viewBox="0 0 48 48"><g fill="currentcolor"><path d="M10 24h4v16h-4zM17 16l-3-1h-4l-3 1 2 7h6l2-7zM13.5 12.6a2 2 0 00.2-.9 1.7 1.7 0 00-3.4 0 2 2 0 00.2.9l-1 .4.5 1h4l.5-1zM23 20a2 2 0 102-2 2 2 0 00-2 2z"/><path d="M28.2 24.3a1.5 1.5 0 001.1-1.2l1.5-4.5-1.6-.6-1.3 3.6A2.2 2.2 0 0126 23h-4c-1.7 0-3 2.1-3 3.3V32h2v-6c0-.7 1-1 1-1v15h2v-7h1v7h2V25zM34 20a2 2 0 102-2 2 2 0 00-2 2zM34 29v-2l-2 4h-2l4-8h4l4 8h-2l-2-4v1.9l2 6.1h-2v5h-4v-5h-2z"/></g></svg>