<svg aria-hidden="true" class="rw-icon rw-icon--pick-up-drop-off" width="48" height="48" viewBox="0 0 48 48"><g fill="currentcolor"><path d="M20.2 13.5a2.8 2.8 0 002.8-2.7A2.9 2.9 0 0020.2 8a2.7 2.7 0 00-2.7 2.7 2.8 2.8 0 002.7 2.8z"/><path d="M29.1 19.2a1.3 1.3 0 00.6-1.4l-1-7.2a.9.9 0 00-1.1-.9h-.1a.9.9 0 00-.9 1.1l.8 6.1-3.4-1.4a3.5 3.5 0 00-2-.5h-4a2.6 2.6 0 00-2.3 1.8l-3.2 9.4a1.2 1.2 0 00.2 1 1.1 1.1 0 00.9.5 1.2 1.2 0 001-.7l2-6.3h.2c.1 0 .1.1.1.2v21a1.2 1.2 0 001.3 1.1 1.2 1.2 0 001.2-1.2V29.5a.5.5 0 01.5-.5h.5a.5.5 0 01.5.5v12.3a1.2 1.2 0 001.2 1.2h.1a1.2 1.2 0 001.2-1.2v-23a.7.7 0 01.6-.7h.3l2.8 1.2a2 2 0 002-.1z"/><path d="M12.6 29h1.7a1.1 1.1 0 011.2 1v6.3a1.2 1.2 0 01-1.2 1.2h-1.7a1.1 1.1 0 01-1.1-1.1v-6.3a1.3 1.3 0 011.1-1.1zM36.5 29H35v-4a1.5 1.5 0 00-1.5-1.5H31a1.4 1.4 0 00-1.5 1.3V29H28a1.4 1.4 0 00-1.5 1.3v11.2A1.5 1.5 0 0028 43h8.5a1.5 1.5 0 001.5-1.5v-11a1.5 1.5 0 00-1.5-1.5zM34 29h-3.5v-4a.5.5 0 01.5-.5h2.5a.5.5 0 01.5.5z"/></g></svg>