<svg aria-hidden="true" class="rw-icon rw-icon--restaurant" width="48" height="48" viewBox="0 0 48 48"><g fill="currentcolor"><path d="M41.4 5a1.6 1.6 0 00-1.6 1.4l-2.7 18.4v.4a2.8 2.8 0 002.7 2.8h.7v13.8a1.2 1.2 0 001.2 1.2h.1a1.2 1.2 0 001.2-1.2V6.6A1.6 1.6 0 0041.4 5zM32 13.8a1.2 1.2 0 01-1.2 1.2 1.2 1.2 0 01-1.3-1.1V5H28v8.8a1.2 1.2 0 01-1.2 1.2 1.2 1.2 0 01-1.3-1.1V5H24v10.5a4.8 4.8 0 003.5 4.4v21.8a1.2 1.2 0 001.1 1.3 1.4 1.4 0 001.4-1.2V19.9a4.7 4.7 0 003.5-4.1V5H32zM13.5 14.3V11a2 2 0 00-2-2H5v1.5h6.5a.5.5 0 01.5.5v3.3A7.7 7.7 0 005 22l1 21h13.5l1-20.9a7.7 7.7 0 00-7-7.8zM18 41.5H7.4v-3h10.8zm.8-15H6.7l-.2-3h12.4zM6.5 22a6.2 6.2 0 016.2-6.2h.1A6.2 6.2 0 0119 22z"/></g></svg>