<svg aria-hidden="true" class="rw-icon rw-icon--radar" width="48" height="48" viewBox="0 0 48 48"><path d="M24 5A19 19 0 115 24 19 19 0 0124 5zm-4.4 2.58l1.23 4.587a12.248 12.248 0 1015.003 8.663l4.588-1.23A17.001 17.001 0 0019.6 7.58zm4.4 4.17a12.28 12.28 0 0111.754 8.796l.08.283-.483.13a11.75 11.75 0 11-14.674-8.23l.282-.08-.13-.483A12.21 12.21 0 0124 11.75zm0 .5a11.733 11.733 0 00-3.042.399l1.907 7.114a4.5 4.5 0 105.552 3.055l6.934-1.858A11.77 11.77 0 0024 12.25zm.1 7.34a4.51 4.51 0 014.317 3.228l-.967.258a3.5 3.5 0 11-4.327-2.347l-.258-.966a4.485 4.485 0 011.235-.173zm0 1a3.492 3.492 0 00-.977.139L24 24l3.45-.924a3.506 3.506 0 00-3.35-2.486z" fill="currentcolor" fill-rule="evenodd"/></svg>