<svg aria-hidden="true" class="rw-icon rw-icon--security-alt" width="48" height="48" viewBox="0 0 48 48"><g fill="currentcolor"><path d="M9.5 24v4a2 2 0 002 2H21a2 2 0 002-2v-4h-1.5v4a.5.5 0 01-.5.5h-9.5a.5.5 0 01-.5-.5v-4z"/><path d="M18.5 21H14a1.4 1.4 0 00-1.5 1.3V27H20v-4.5a1.4 1.4 0 00-1.3-1.5zM31.8 11.2l1.2.8v.5a2.5 2.5 0 005 0V10h-5.8a.7.7 0 00-.7.6.7.7 0 00.3.6z"/><path d="M42.8 22.6l-2.3-4.1a3.2 3.2 0 00-2.5-2h-4a2.9 2.9 0 00-1.8.7l-1 1.1-3.2 3.1V7a2 2 0 00-2-2H7a2 2 0 00-2 2v36h23V26l-1.5 1.5v4h-20v-17h20v8.3l-1.7 1.6a1.1 1.1 0 00.3 1.5 1.1 1.1 0 001.1.1l5.7-5.4c.1-.2.3-.2.5 0s.1.1.1.2v20.8a1.4 1.4 0 001.2 1.4 1.2 1.2 0 001.3-1.1V30a.5.5 0 011 0v11.7a1.3 1.3 0 001.2 1.3 1.2 1.2 0 001.3-1.1v-21a.3.3 0 01.3-.3h.3l1.9 3.3v4.2a1 1 0 00.8 1 1 1 0 001.2-.8v-4.9a1.1 1.1 0 00-.2-.8zM26.5 41.5h-20V38h20zm0-8.5v3.5h-20V33zm-10-21.5a2 2 0 112-2 2 2 0 01-2 2z"/></g></svg>