<svg aria-hidden="true" class="rw-icon rw-icon--seebuyfly" width="65" height="63" viewBox="0 0 65 63"><path fill="#FC0" d="M0 0h65v63H0V0z"/><path fill="#003087" d="M51.8 12.5c0-.2-.2-.4-.4-.4H12.6c-.2 0-.4.2-.4.4v40c0 .2.2.4.4.4h21.8l8.3-5.6 9.1-12V12.5z"/><path fill="#FFF" d="M33.6 52.9c6.1-2.7 10.5-10.2 13.7-16.8.5-1.1.7-1.6 1.3-1.9.4-.2 1.3-.1 1.8-.1.5.1 1.1.1 2.2.2.1 0 .2.1.2.1.1.1 0 .2-.1.2-1.4 4.3-6.9 10.5-8.7 12-3.7 3-6.1 5-10 6.4-.1.1-.1.1-.2.1-.1.1-.3.1-.3-.1-.1-.1.1-.1.1-.1M22.2 25.2c-.9 0-1.3-.1-2.1-.3H20l.2-1.4c.6.3 1.3.5 2 .5.8 0 1.7-.4 1.7-1.2s-.8-1.1-1.6-1.4c-1.1-.4-2.3-.9-2.3-2.5 0-2.4 2.3-2.6 3-2.6.7 0 1.4.1 2 .3l-.2 1.3c-.6-.2-1.2-.4-1.8-.4-.7 0-1.5.4-1.5 1.3 0 .7.7 1 1.5 1.3 1.1.4 2.4.9 2.4 2.6.1 2.3-2.2 2.5-3.2 2.5m12.4-.1h-4.8c-.2 0-.3-.1-.3-.3v-8.2c.1-.1.2-.2.3-.2h4.8v1.2h-3.5V20h2.8v1.2h-2.8v2.7h3.5v1.2zm9.6 0h-4.8c-.2 0-.3-.2-.3-.3v-8.1c0-.2.2-.3.3-.3h4.8v1.2h-3.5V20h2.8v1.2h-2.8v2.7h3.6l-.1 1.2z"/><path fill="#FFF" d="M41.1 44.6l-3.2-5.2h1.7l2.3 4-.8 1.2zM32 37.1c-2.6 0-3.8-1.2-3.8-3.5v-5.8h2.1V33c0 1.6.5 2.3 1.7 2.3s1.7-.7 1.7-2.3v-5.3h2.1v5.8c.1 2.4-1.2 3.6-3.8 3.6m10.7-.2h-2.1v-3.6l-3.2-5.4-.2-.3h2.5l.1.1 2 3.5 2-3.5.1-.1h2.3l-.2.3-3.2 5.4v3.6zm-20 0h-2.8c-.3 0-.5-.3-.5-.6v-8.1c0-.3.3-.5.5-.5h2.8c1.1 0 3.1.3 3.1 2.5 0 .9-.5 1.6-1.3 1.9 1 .3 1.6 1.1 1.6 2.1 0 2.4-2.4 2.7-3.4 2.7m-1.1-1.8h.7c1.1 0 1.7-.4 1.7-1.1 0-.8-.5-1.2-1.7-1.2h-.7v2.3zm0-3.8h.5c1.5 0 1.5-.7 1.5-.9 0-.8-.6-.9-1.5-.9h-.5v1.8zm0 16.8h-1.4v-8.4c0-.1.1-.2.2-.2h4.5v1.1h-3.2v2.5h3v1.1h-3v.2l-.1 3.7zm12.8 0h-4.7c-.1 0-.2-.1-.2-.2v-8.4H31V47h3.5v1.1z"/><path fill="#003087" d="M33 9.4c-.4 0-.6-.3-.6-.8s.2-.7.6-.7c.3 0 .4.1.5.2l.1-.7c-.2-.1-.5-.1-.7-.1-.4 0-.8.2-1 .4-.2.3-.4.6-.4 1s.1.8.4 1.1c.2.3.6.4 1 .4.3 0 .6-.1.7-.1l-.1-.8c-.1 0-.3.1-.5.1m-2.6-1.5c-.2-.1-.4-.2-.5-.2-.2-.1-.2-.2-.2-.3 0-.2.1-.3.2-.3s.1-.1.2-.1c.2 0 .5.1.8.2l.1-.7c-.3-.1-.6-.2-1-.2s-.6.1-.9.3c-.3.2-.4.5-.4.9 0 .6.4.9.9 1.1.2.1.4.2.5.2.3.2.2.5.1.6-.1.1-.3.1-.4.1-.3 0-.5-.1-.9-.3l-.2.7c.2.1.6.2 1 .2s.7-.1 1-.3c.3-.2.4-.5.4-.9.1-.6-.4-.9-.7-1m16.8-.3c-.3-.3-.6-.4-1-.4s-.7.2-1 .4c-.3.3-.4.6-.4 1.1 0 .4.2.7.4 1 .3.3.6.4 1.1.4.5 0 .8-.2 1.1-.4.3-.3.4-.6.4-1-.3-.5-.4-.9-.6-1.1zm-.6 1.6c-.1.2-.2.3-.5.3-.2 0-.4-.1-.5-.3-.1-.2-.1-.4-.1-.6 0-.4.2-.7.6-.7.4 0 .6.3.6.7 0 .2-.1.4-.1.6m-6.3 0c-.1.2-.2.3-.4.3s-.3-.1-.4-.3c-.1-.2-.1-.4-.1-.5s.1-.4.1-.5c.1-.2.2-.2.4-.2s.3.1.4.3c.1.2.1.4.1.5 0 0 0 .2-.1.4m-.9.6c.2.2.5.3.7.3.4 0 .7-.2.9-.4.2-.3.3-.6.3-1s-.1-.7-.3-1c-.2-.3-.5-.4-.9-.4-.3 0-.5.1-.7.3v-.3h-.8v3.8h.6c.2 0 .2-.1.2-.2V9.8zm-1.6.2c.2 0 .2-.1.2-.2V7.3h-.9V10h.7zm-.4-3.7c-.2.1-.2.1-.2.2v.4h.8v-.8l-.6.2zM48.2 6c-.2.1-.2.1-.2.2V10h.6c.2 0 .2-.1.2-.2V6h-.6zM35.8 8.5V10h.6c.2 0 .2-.1.2-.2V8.3c0-.3-.1-.6-.2-.8-.2-.2-.4-.3-.7-.3s-.7.1-.9.3V6l-.6.1c-.1 0-.2.1-.2.2V10h.9V8.5c0-.2.1-.3.1-.5.1-.2.2-.3.4-.3s.3.1.3.2l.1.6m7.6 0V10h.6c.2 0 .2-.1.2-.2V8.3c0-.3-.1-.6-.2-.8-.2-.2-.4-.3-.7-.3s-.6.1-.7.3V6l-.6.1c-.2.1-.2.1-.2.2V10h.9V8.5c0-.2.1-.3.1-.5.1-.2.2-.3.4-.3s.3.1.3.2l-.1.6"/></svg>