<svg width="48" height="48" viewBox="0 0 48 48" class="rw-icon rw-icon-spinner" aria-hidden="true"><style>@-webkit-keyframes full-rotation{0%{-webkit-transform:rotate(0deg);transform:rotate(0deg)}to{-webkit-transform:rotate(360deg);transform:rotate(360deg)}}@keyframes full-rotation{0%{-webkit-transform:rotate(0deg);transform:rotate(0deg)}to{-webkit-transform:rotate(360deg);transform:rotate(360deg)}}</style><linearGradient id="rw-spinner-gradient" gradientUnits="userSpaceOnUse" x1="2" y1="24" x2="46" y2="24"><stop offset=".267" style="stop-color:#d890db;stop-opacity:.99"/><stop offset=".378" style="stop-color:#c28cdc;stop-opacity:.9915"/><stop offset=".608" style="stop-color:#8a80dd;stop-opacity:.9946"/><stop offset=".935" style="stop-color:#326fdf;stop-opacity:.9991"/><stop offset="1" style="stop-color:#1f6be0"/></linearGradient><path fill="url(#rw-spinner-gradient)" d="M24 2C11.8 2 2 11.8 2 24s9.8 22 22 22 22-9.8 22-22S36.2 2 24 2z"/><path fill="#fff" d="M.2 27C1.8 40.1 13.8 49.5 27 47.8 40.1 46.2 49.5 34.2 47.8 21 46.2 7.9 34.2-1.5 21 .2S-1.5 13.8.2 27zM25 7.6c.2 1.7-1 3.3-2.8 3.5-7 .9-11.9 7.2-11 14.2.2 1.7-1 3.3-2.8 3.5-1.7.2-3.3-1-3.5-2.8C3.6 15.7 11 6.2 21.4 4.9c1.8-.3 3.4 1 3.6 2.7z" style="-webkit-transform-origin:50% 50%;-moz-transform-origin:50% 50%;-ms-transform-origin:50% 50%;transform-origin:50% 50%;-webkit-animation:full-rotation 1s infinite linear;-moz-animation:full-rotation 1s infinite linear;animation:full-rotation 1s infinite linear;width:auto"/></svg>