<svg aria-hidden="true" class="rw-icon rw-icon--security" width="48" height="48" viewBox="0 0 48 48"><g fill="currentcolor"><path d="M12.5 15a2.5 2.5 0 002.5-2.5V12l1.2-.8a.7.7 0 00.2-.9.5.5 0 00-.5-.3H10v2.5a2.5 2.5 0 002.5 2.5zM20 43h1.5V27.5L20 26v17z"/><path d="M20 5v16.4l-3.2-3.1-1.1-1a2.5 2.5 0 00-1.8-.8H10a3.2 3.2 0 00-2.5 2l-2.3 4.2a.8.8 0 00-.2.7v4.8a.9.9 0 00.8 1h.4a1 1 0 00.8-1V24l1.9-3.3c.1-.1.2-.2.4-.1s.1.2.1.3v7.8L7.5 41.6a1.2 1.2 0 001.1 1.3h.1a1.4 1.4 0 001.3-1L11.9 29a.8.8 0 01.7-.5c.2 0 .4.3.5.5l1.8 13a1.3 1.3 0 102.6-.4l-2-13v-7.7c0-.3.1-.4.4-.4s.2 0 .2.1l5.6 5.4a1.2 1.2 0 001.6 0 1 1 0 000-1.4h-.1l-1.7-1.7V6.5h8a2 2 0 004 0h8V43H43V5z"/><circle cx="31.5" cy="12.5" r="2.5"/><path d="M38.2 9.5a.8.8 0 00-1-.7H37a1 1 0 00-.8 1.1v.2l1.1 3.7c.1.1 0 .2-.1.3l-2.7 2a1.7 1.7 0 01-1.2.4h-3.7a1.5 1.5 0 01-1.1-.4l-2.8-1.9c-.1-.1-.2-.3-.1-.4l1.1-3.7a1.1 1.1 0 00-.5-1.2 1 1 0 00-1.4.4h-.1l-1.5 4.9a1.2 1.2 0 00.4 1.1l3.9 3.3c.1.2.3.4.3.6l1.2 5v.5l-3 8.9a1 1 0 00.6 1.3H29v7a1.1 1.1 0 00.9 1 1 1 0 001.1-.8V35h1v7a1 1 0 00.8 1 1 1 0 001.2-.8V35h2.1a1.1 1.1 0 001-1 .4.4 0 00-.1-.3l-2.9-8.9a.7.7 0 01-.1-.5l1.2-5a.5.5 0 01.3-.5l3.9-3.3a.9.9 0 00.3-1.1z"/></g></svg>