<svg aria-hidden="true" class="rw-icon rw-icon--Shopping" width="48" height="48" viewBox="0 0 48 48"><g fill="currentcolor"><circle cx="33.5" cy="37.5" r="2"/><path d="M41 32h-2.5v-6H36v-7.5a5.9 5.9 0 00-3-5.1V5h-6v8.4a6.1 6.1 0 00-2.9 4.1H23v-5a3.2 3.2 0 00-3-3h-5a3.2 3.2 0 00-3 3v5H6l-.8 22.4A2.9 2.9 0 007.9 43H41a2 2 0 002-2v-7a2 2 0 00-2-2zM13.5 12.5a1.4 1.4 0 011.3-1.5H20a1.4 1.4 0 011.5 1.3v5.2h-8zm8.1 14.7l-2.4 2.4 1.2 5.6a1.1 1.1 0 01-.4 1.2l-.6.6-2.6-5-1.8 1.8.2 1.5a.8.8 0 01-.2.5l-.6.7-1.3-2.2-2.3-1.3.6-.6a.7.7 0 01.6-.2h1.5l1.7-1.7-4.8-2.5.7-.7a1.2 1.2 0 011.1-.4l5.6 1.2 2.4-2.4a1.1 1.1 0 011.5 0 1 1 0 010 1.4zm15.4.3V32H27v-4.5zm-8.5-13.1V7.5h3v6.9a4.3 4.3 0 013 4.1V26h-5.1l-.4-8.5h-3.4a4.5 4.5 0 012.9-3.1zm13 26.6a.5.5 0 01-.5.5H25.5a.5.5 0 01-.5-.5v-7a.5.5 0 01.5-.5H41a.5.5 0 01.5.5z"/></g></svg>