<svg aria-hidden="true" class="rw-icon rw-icon--tags" width="48" height="48" viewBox="0 0 48 48"><g fill="currentcolor"><path d="M12.2 25l14.4 14.3-7.8 2.1a2.2 2.2 0 01-2.6-1.5zM9.1 21.7l4.8 18-7-1.9c-1.9-.3-1.8-1.5-1.5-2.6zM43 23.1a2.1 2.1 0 010 2.9L31.1 38a2.2 2.2 0 01-3 0L11 20.9V8.8A2.9 2.9 0 0113.8 6h12.1zM17.4 12.4a2.1 2.1 0 01-2.9 0 2.1 2.1 0 010-2.8 2.1 2.1 0 012.9 0 1.9 1.9 0 010 2.8zm7.7 11.4a3.2 3.2 0 01-.8 1.2 2.8 2.8 0 01-1.1.8 2.8 2.8 0 01-1.3.3 2.7 2.7 0 01-1.2-.3l-1-.7-.6-.6a3.5 3.5 0 01-.8-1 2.7 2.7 0 01-.3-1.2 3 3 0 01.2-1.3 2.8 2.8 0 01.8-1.1 2.1 2.1 0 011.1-.8 2.5 2.5 0 012.4 0 4.1 4.1 0 011.1.7l.6.6a3.9 3.9 0 01.8 1 2.7 2.7 0 01.3 1.2 5 5 0 01-.2 1.2zm3.7 6.4L25.2 16l1.3-.3 3.6 14.2zm8.1-5.7a3.7 3.7 0 01-.7 1.2l-1.2.8-1.2.2-1.2-.2a3.8 3.8 0 01-1.1-.8l-.6-.6a2.3 2.3 0 01-.7-1 2.7 2.7 0 01-.3-1.2 1.7 1.7 0 01.2-1.2 3.7 3.7 0 01.7-1.2 4.2 4.2 0 011.2-.8 2.5 2.5 0 011.2-.2 2.5 2.5 0 011.2.2l1.1.7.6.6a2.6 2.6 0 01.7 1.1 2.7 2.7 0 01.3 1.2 1.7 1.7 0 01-.2 1.2zm-16.3-4.2a1.8 1.8 0 00-.7.5 1.6 1.6 0 00-.4.7 1.5 1.5 0 00-.1.7c.1.2.1.4.3.6a2.1 2.1 0 00.4.6l.6.6.6.4.7.2a.9.9 0 00.7-.1 1.3 1.3 0 00.7-.4 1.6 1.6 0 00.4-.7.8.8 0 000-.7 1.4 1.4 0 00-.2-.6l-.4-.6-.6-.6-.7-.4-.6-.2h-.7zm11.8.7l-.6.4a1.3 1.3 0 00-.4.7 1.7 1.7 0 00-.1.7 2.5 2.5 0 00.2.7l.5.6.6.5.6.5.7.2h.7a1.3 1.3 0 00.6-.5c.2-.2.4-.4.4-.6a2 2 0 00.1-.7 1.9 1.9 0 00-.2-.7l-.5-.6-.6-.6-.6-.4-.7-.2h-.7z"/></g></svg>