<svg width="48" height="48" viewBox="0 0 48 48" aria-hidden="true" class="rw-icon rw-icon--transfer"><path d="M15 29.1c1.1.3 2.7.5 2.9-.1s-1.2-2.1-2.2-2.6l-2.9-1.3-.6-6.7-1.4-.7-1.1 5.9-4-1.8-.2-2.7-1.2-.6-1.1 2.4c-.2.4-.6 1-.4 1.4S8.6 26 8.6 26l-3.8 4.7 1.4.7 5.5-3.9 2.3 1.4v.4a1.3 1.3 0 00-.2.6.6.6 0 00.6.6.6.6 0 00.6-.6zm6.3-25.7l-5.5 3.8L13 5.9c-1-.5-3.2-.7-3.5-.1s1.4 2.1 2.3 2.6l2.9 1.3.6 6.6 1.4.7 1.1-5.9c4.1 1.9 4.7 2.1 6.6 2s.6-.8.8-1.2l1.1-2.4-1.2-.5-2.2 1.5-4-1.9L22.7 4zM28 37h-2.1l3.1 3.1h-1.7a16.6 16.6 0 01-13.1-6.6l-1.6 1.1a18.2 18.2 0 0014.7 7.5h1.5L25.9 45H28l4-4zm3.1-30.8c0-.1 3.5-1.9 3.5-1.9l-1.9-.6-4.9 2.5 2.6 4.9 2 .6s-1.9-3.6-2-3.6a16.2 16.2 0 016.2 29.1l1.2 1.6a18.2 18.2 0 00-6.7-32.6z" fill="currentcolor"/></svg>