<svg aria-hidden="true" class="rw-icon rw-icon--transport" width="48" height="48" viewBox="0 0 48 48"><g fill="currentcolor"><path d="M40.3 9H21.5a2.7 2.7 0 00-2.7 2.7v7.7H22v-4.6a2.2 2.2 0 012.2-2.2h13.5a2.2 2.2 0 012.2 2.1v5.9a2.3 2.3 0 01-2.3 2.3h-8.4l2.2 6.2a3.2 3.2 0 01.3 1.4v8.7h6l2.2 3.8h2.2L39 37.2h1.3a2.7 2.7 0 002.7-2.7V11.7A2.7 2.7 0 0040.3 9zm-2.7 25.1a2.2 2.2 0 01-2.2-2.2 2.2 2.2 0 012.2-2.2 2.3 2.3 0 01.9 4.5 1.4 1.4 0 01-.9-.1z"/><path d="M26.6 23a2.7 2.7 0 00-2.5-1.7H10.3A2.5 2.5 0 007.9 23l-2.7 7.8a2.9 2.9 0 00-.2.9v10.4a.9.9 0 00.9.9h2.3a.9.9 0 00.9-.9v-2.9h16.3v2.9a.9.9 0 00.9.9h2.2a.9.9 0 00.9-.9V31.7a2.8 2.8 0 00-.1-.9zm-17 .6a.8.8 0 01.7-.5h13.8a.8.8 0 01.7.5l2.1 5.8H7.6zm3.1 13.1H8.2a1.4 1.4 0 01-1.4-1.4v-1.8h4.5a1.4 1.4 0 011.4 1.4zm14.9-1.4a1.3 1.3 0 01-1.2 1.4h-4.7v-1.8a1.4 1.4 0 011.4-1.4h4.5z"/></g></svg>