<svg aria-hidden="true" class="rw-icon rw-icon--twitter" width="48" height="48" viewBox="0 0 48 48"><path fill="currentcolor" d="M36.7 17.5v.8C36.7 27 30.1 37 18.1 37A18.4 18.4 0 018 34a12.9 12.9 0 009.7-2.7 6.4 6.4 0 01-6.1-4.5 7.6 7.6 0 003-.1 6.6 6.6 0 01-5.3-6.5 7.4 7.4 0 003 .8 6.5 6.5 0 01-3-5.5 7.4 7.4 0 01.9-3.3 19 19 0 0013.6 6.9 3.9 3.9 0 01-.2-1.5 6.6 6.6 0 016.6-6.6 6.4 6.4 0 014.7 2.1 12.6 12.6 0 004.2-1.6 6.5 6.5 0 01-2.9 3.6 12.6 12.6 0 003.8-1 13.3 13.3 0 01-3.3 3.4" fill-rule="evenodd"/></svg>