<svg class="rw-icon rw-icon--visa" width="48" height="48" viewBox="0 0 48 48"><path d="M16.867 30.561L19.204 17h3.738l-2.339 13.561h-3.736zM30.955 17c-3.694 0-6.296 1.84-6.318 4.475-.02 1.949 1.858 3.036 3.276 3.685 1.455.664 1.944 1.088 1.937 1.682-.01.908-1.162 1.324-2.236 1.324-1.497 0-2.291-.206-3.519-.712l-.482-.216-.524 3.036c.873.379 2.487.707 4.164.724 3.929 0 6.48-1.818 6.508-4.633.015-1.543-.981-2.717-3.138-3.685-1.306-.627-2.106-1.046-2.098-1.68 0-.565.677-1.167 2.14-1.167a6.966 6.966 0 012.798.52l.335.155.507-2.938c-.74-.276-1.901-.57-3.35-.57zm13.109 0h-2.889c-.895 0-1.564.242-1.957 1.125l-5.551 12.428h3.925s.641-1.671.787-2.038l4.787.006c.112.475.454 2.032.454 2.032h3.469L44.064 17zm-4.61 8.741c.31-.781 1.49-3.79 1.49-3.79-.022.035.306-.786.495-1.295l.253 1.169.865 3.916h-3.103zM13.96 17l-3.66 9.248-.39-1.88c-.68-2.165-2.804-4.512-5.177-5.688L8.08 30.54l3.954-.005L17.92 17h-3.96z" fill="#004686"/><path d="M7.075 17H1.048L1 17.282c4.69 1.123 7.792 3.836 9.08 7.095l-1.31-6.232c-.228-.859-.884-1.115-1.695-1.145z" fill="#ef9b11"/></svg>