<svg aria-hidden="true" class="rw-icon rw-icon--wheelchair" width="48" height="48" viewBox="0 0 48 48"><g fill="currentcolor"><circle cx="34.5" cy="9" r="4"/><path d="M34.5 27h-8.2l5.9-8.4a3 3 0 00-.6-4 4.9 4.9 0 00-1.7-.6H18.5a1.8 1.8 0 00-1.5.8l-2 5a1.9 1.9 0 00.6 2.5l.9.2a1.8 1.8 0 001.5-.8l1.5-4.2h4.6a.5.5 0 01.5.5.4.4 0 01-.1.3l-5.7 8.1a3 3 0 00.6 4 4.9 4.9 0 001.7.6h11l-1.6 9.7a2 2 0 001.7 2.3h.3a2 2 0 002-1.7l2-12a1.8 1.8 0 00-.5-1.6 2.1 2.1 0 00-1.5-.7z"/><path d="M25.5 33v.5a6.5 6.5 0 01-13 0 6.4 6.4 0 013.4-5.7l1.3-3.6a9.5 9.5 0 003.6 18.6 9.5 9.5 0 007.7-9.4V33z"/></g></svg>