<svg aria-hidden="true" class="rw-icon rw-icon--walk" width="48" height="48" viewBox="0 0 48 48"><g fill="currentcolor"><path d="M26.8 13.2A3.4 3.4 0 0030 10a3.2 3.2 0 10-6.4 0 3.4 3.4 0 003.2 3.2zM33.1 23.4l-2.9-2-2.1-3.6-.8-1.4v-.2l-.3-.3a4 4 0 00-5.2-.7l-1 .6-4.1 2.9a1.3 1.3 0 00-.6.7L14.3 25a1.4 1.4 0 00.9 1.9h.5a1.5 1.5 0 001.4-1l1.4-5 2-1.4c.2-.1.3 0 .3.2l-.9 5.2a2.4 2.4 0 00.6 2l-1.3 6.8-4.2 6.6a1.7 1.7 0 00.3 2.3 2.1 2.1 0 001.1.4 1.8 1.8 0 001.5-.8l4.3-6.9.3-.6 1.1-4.1 2.9 3.4 1.2 7.6a1.8 1.8 0 001.7 1.4h.3a1.7 1.7 0 001.5-1.9l-1.3-7.9c-.1-.2-.1-.5-.3-.6l-4-6.7.7-4.8c.1 0 .1-.1.2 0l1.2 2.2a1.2 1.2 0 00.5.5l3.4 2.2.8.2a1.5 1.5 0 001.5-1.5 1.7 1.7 0 00-.8-1.3z"/></g></svg>