<svg aria-hidden="true" class="rw-icon rw-icon--whatsapp" width="48" height="48" viewBox="0 0 48 48"><g fill="currentcolor"><path d="M35.3 12.7A15.9 15.9 0 008.1 23.9a16 16 0 002.2 8L8 40.2l8.4-2.3a16.1 16.1 0 007.7 2 16 16 0 0015.9-16 15.8 15.8 0 00-4.7-11.2M24.1 37.2a13.7 13.7 0 01-6.8-1.9l-.5-.2-5 1.3 1.4-4.9-.4-.5a13.6 13.6 0 01-2-7.1 13.3 13.3 0 0113.3-13.2 13.3 13.3 0 0113.2 13.2 13.3 13.3 0 01-13.2 13.3"/><path d="M31.3 27.3L28.6 26c-.4-.2-.6-.2-.9.2l-1.2 1.5c-.3.3-.5.3-.9.1a11 11 0 01-3.2-1.9 11.3 11.3 0 01-2.2-2.8c-.3-.4 0-.6.1-.8l.6-.7a1.6 1.6 0 00.4-.7c.2-.2.1-.5 0-.7l-1.2-2.9c-.3-.8-.7-.7-.9-.7h-.8a1.4 1.4 0 00-1 .5 4.2 4.2 0 00-1.4 3.3 7.7 7.7 0 001.6 4.1 17.2 17.2 0 006.8 6l2.3.9a5.4 5.4 0 002.5.1 4.2 4.2 0 002.7-1.9 3.5 3.5 0 00.2-1.9l-.8-.4"/></g></svg>